<mxfile host="app.diagrams.net" modified="2022-05-19T21:15:27.093Z" agent="5.0 (Windows NT 10.0; Win64; x64) AppleWebKit/537.36 (KHTML, like Gecko) Chrome/101.0.4951.67 Safari/537.36" etag="ORTRhfiBbGcwOLT1pdoD" version="18.0.8" type="github" pages="8">
  <diagram id="Ood6ehjGAo4JrDTI9qC6" name="Page-1">
    <mxGraphModel dx="1422" dy="754" grid="1" gridSize="10" guides="1" tooltips="1" connect="1" arrows="1" fold="1" page="1" pageScale="1" pageWidth="827" pageHeight="1169" math="0" shadow="0">
      <root>
        <mxCell id="0" />
        <mxCell id="1" parent="0" />
        <mxCell id="b79uXGGeb3DcNZu2dP1U-1" value="" style="ellipse;whiteSpace=wrap;html=1;" vertex="1" parent="1">
          <mxGeometry x="260" y="260" width="60" height="60" as="geometry" />
        </mxCell>
        <mxCell id="b79uXGGeb3DcNZu2dP1U-2" value="" style="ellipse;whiteSpace=wrap;html=1;" vertex="1" parent="1">
          <mxGeometry x="150" y="260" width="60" height="60" as="geometry" />
        </mxCell>
        <mxCell id="b79uXGGeb3DcNZu2dP1U-3" value="" style="ellipse;whiteSpace=wrap;html=1;" vertex="1" parent="1">
          <mxGeometry x="260" y="370" width="60" height="60" as="geometry" />
        </mxCell>
        <mxCell id="b79uXGGeb3DcNZu2dP1U-4" value="" style="ellipse;whiteSpace=wrap;html=1;" vertex="1" parent="1">
          <mxGeometry x="150" y="370" width="60" height="60" as="geometry" />
        </mxCell>
        <mxCell id="b79uXGGeb3DcNZu2dP1U-37" value="" style="edgeStyle=orthogonalEdgeStyle;rounded=0;orthogonalLoop=1;jettySize=auto;html=1;" edge="1" parent="1" source="b79uXGGeb3DcNZu2dP1U-5" target="b79uXGGeb3DcNZu2dP1U-7">
          <mxGeometry relative="1" as="geometry" />
        </mxCell>
        <mxCell id="b79uXGGeb3DcNZu2dP1U-5" value="" style="ellipse;whiteSpace=wrap;html=1;" vertex="1" parent="1">
          <mxGeometry x="470" y="260" width="60" height="60" as="geometry" />
        </mxCell>
        <mxCell id="b79uXGGeb3DcNZu2dP1U-6" value="" style="ellipse;whiteSpace=wrap;html=1;" vertex="1" parent="1">
          <mxGeometry x="360" y="260" width="60" height="60" as="geometry" />
        </mxCell>
        <mxCell id="b79uXGGeb3DcNZu2dP1U-7" value="" style="ellipse;whiteSpace=wrap;html=1;" vertex="1" parent="1">
          <mxGeometry x="470" y="370" width="60" height="60" as="geometry" />
        </mxCell>
        <mxCell id="b79uXGGeb3DcNZu2dP1U-8" value="" style="ellipse;whiteSpace=wrap;html=1;" vertex="1" parent="1">
          <mxGeometry x="360" y="370" width="60" height="60" as="geometry" />
        </mxCell>
        <mxCell id="b79uXGGeb3DcNZu2dP1U-9" value="" style="ellipse;whiteSpace=wrap;html=1;" vertex="1" parent="1">
          <mxGeometry x="670" y="260" width="60" height="60" as="geometry" />
        </mxCell>
        <mxCell id="b79uXGGeb3DcNZu2dP1U-10" value="" style="ellipse;whiteSpace=wrap;html=1;" vertex="1" parent="1">
          <mxGeometry x="560" y="260" width="60" height="60" as="geometry" />
        </mxCell>
        <mxCell id="b79uXGGeb3DcNZu2dP1U-11" value="" style="ellipse;whiteSpace=wrap;html=1;" vertex="1" parent="1">
          <mxGeometry x="670" y="370" width="60" height="60" as="geometry" />
        </mxCell>
        <mxCell id="b79uXGGeb3DcNZu2dP1U-12" value="" style="ellipse;whiteSpace=wrap;html=1;" vertex="1" parent="1">
          <mxGeometry x="560" y="370" width="60" height="60" as="geometry" />
        </mxCell>
        <mxCell id="b79uXGGeb3DcNZu2dP1U-13" value="S" style="ellipse;whiteSpace=wrap;html=1;" vertex="1" parent="1">
          <mxGeometry x="410" y="130" width="60" height="60" as="geometry" />
        </mxCell>
        <mxCell id="b79uXGGeb3DcNZu2dP1U-14" value="t" style="ellipse;whiteSpace=wrap;html=1;" vertex="1" parent="1">
          <mxGeometry x="410" y="500" width="60" height="60" as="geometry" />
        </mxCell>
        <mxCell id="b79uXGGeb3DcNZu2dP1U-15" value="" style="endArrow=classic;html=1;rounded=0;" edge="1" parent="1">
          <mxGeometry width="50" height="50" relative="1" as="geometry">
            <mxPoint x="420" y="200" as="sourcePoint" />
            <mxPoint x="400" y="250" as="targetPoint" />
            <Array as="points" />
          </mxGeometry>
        </mxCell>
        <mxCell id="b79uXGGeb3DcNZu2dP1U-17" value="" style="endArrow=classic;html=1;rounded=0;" edge="1" parent="1">
          <mxGeometry width="50" height="50" relative="1" as="geometry">
            <mxPoint x="460" y="200" as="sourcePoint" />
            <mxPoint x="490" y="250" as="targetPoint" />
          </mxGeometry>
        </mxCell>
        <mxCell id="b79uXGGeb3DcNZu2dP1U-18" value="" style="endArrow=classic;html=1;rounded=0;" edge="1" parent="1">
          <mxGeometry width="50" height="50" relative="1" as="geometry">
            <mxPoint x="480" y="190" as="sourcePoint" />
            <mxPoint x="580" y="250" as="targetPoint" />
          </mxGeometry>
        </mxCell>
        <mxCell id="b79uXGGeb3DcNZu2dP1U-19" value="" style="endArrow=classic;html=1;rounded=0;" edge="1" parent="1">
          <mxGeometry width="50" height="50" relative="1" as="geometry">
            <mxPoint x="480" y="160" as="sourcePoint" />
            <mxPoint x="660" y="260" as="targetPoint" />
          </mxGeometry>
        </mxCell>
        <mxCell id="b79uXGGeb3DcNZu2dP1U-20" value="" style="endArrow=classic;html=1;rounded=0;" edge="1" parent="1">
          <mxGeometry width="50" height="50" relative="1" as="geometry">
            <mxPoint x="400" y="180" as="sourcePoint" />
            <mxPoint x="320" y="250" as="targetPoint" />
          </mxGeometry>
        </mxCell>
        <mxCell id="b79uXGGeb3DcNZu2dP1U-21" value="" style="endArrow=classic;html=1;rounded=0;" edge="1" parent="1">
          <mxGeometry width="50" height="50" relative="1" as="geometry">
            <mxPoint x="390" y="160" as="sourcePoint" />
            <mxPoint x="210" y="260" as="targetPoint" />
          </mxGeometry>
        </mxCell>
        <mxCell id="b79uXGGeb3DcNZu2dP1U-22" value="" style="endArrow=classic;html=1;rounded=0;" edge="1" parent="1">
          <mxGeometry width="50" height="50" relative="1" as="geometry">
            <mxPoint x="680" y="440" as="sourcePoint" />
            <mxPoint x="480" y="520" as="targetPoint" />
          </mxGeometry>
        </mxCell>
        <mxCell id="b79uXGGeb3DcNZu2dP1U-23" value="" style="endArrow=classic;html=1;rounded=0;" edge="1" parent="1">
          <mxGeometry width="50" height="50" relative="1" as="geometry">
            <mxPoint x="560" y="440" as="sourcePoint" />
            <mxPoint x="480" y="500" as="targetPoint" />
          </mxGeometry>
        </mxCell>
        <mxCell id="b79uXGGeb3DcNZu2dP1U-24" value="" style="endArrow=classic;html=1;rounded=0;" edge="1" parent="1">
          <mxGeometry width="50" height="50" relative="1" as="geometry">
            <mxPoint x="490" y="440" as="sourcePoint" />
            <mxPoint x="460" y="490" as="targetPoint" />
          </mxGeometry>
        </mxCell>
        <mxCell id="b79uXGGeb3DcNZu2dP1U-25" value="" style="endArrow=classic;html=1;rounded=0;" edge="1" parent="1">
          <mxGeometry width="50" height="50" relative="1" as="geometry">
            <mxPoint x="390" y="440" as="sourcePoint" />
            <mxPoint x="420" y="490" as="targetPoint" />
          </mxGeometry>
        </mxCell>
        <mxCell id="b79uXGGeb3DcNZu2dP1U-26" value="" style="endArrow=classic;html=1;rounded=0;" edge="1" parent="1">
          <mxGeometry width="50" height="50" relative="1" as="geometry">
            <mxPoint x="300" y="440" as="sourcePoint" />
            <mxPoint x="390" y="510" as="targetPoint" />
          </mxGeometry>
        </mxCell>
        <mxCell id="b79uXGGeb3DcNZu2dP1U-27" value="" style="endArrow=classic;html=1;rounded=0;" edge="1" parent="1">
          <mxGeometry width="50" height="50" relative="1" as="geometry">
            <mxPoint x="210" y="440" as="sourcePoint" />
            <mxPoint x="380" y="530" as="targetPoint" />
          </mxGeometry>
        </mxCell>
        <mxCell id="b79uXGGeb3DcNZu2dP1U-28" value="" style="endArrow=classic;html=1;rounded=0;entryX=0.5;entryY=0;entryDx=0;entryDy=0;exitX=0.5;exitY=1;exitDx=0;exitDy=0;exitPerimeter=0;" edge="1" parent="1" source="b79uXGGeb3DcNZu2dP1U-2" target="b79uXGGeb3DcNZu2dP1U-4">
          <mxGeometry width="50" height="50" relative="1" as="geometry">
            <mxPoint x="180" y="330" as="sourcePoint" />
            <mxPoint x="440" y="360" as="targetPoint" />
          </mxGeometry>
        </mxCell>
        <mxCell id="b79uXGGeb3DcNZu2dP1U-29" value="" style="endArrow=classic;html=1;rounded=0;entryX=0.5;entryY=0;entryDx=0;entryDy=0;exitX=0.5;exitY=1;exitDx=0;exitDy=0;exitPerimeter=0;" edge="1" parent="1">
          <mxGeometry width="50" height="50" relative="1" as="geometry">
            <mxPoint x="289.5" y="320" as="sourcePoint" />
            <mxPoint x="289.5" y="370" as="targetPoint" />
          </mxGeometry>
        </mxCell>
        <mxCell id="b79uXGGeb3DcNZu2dP1U-30" value="" style="endArrow=classic;html=1;rounded=0;entryX=0.5;entryY=0;entryDx=0;entryDy=0;exitX=0.5;exitY=1;exitDx=0;exitDy=0;exitPerimeter=0;" edge="1" parent="1">
          <mxGeometry width="50" height="50" relative="1" as="geometry">
            <mxPoint x="499.5" y="320" as="sourcePoint" />
            <mxPoint x="499.5" y="370" as="targetPoint" />
          </mxGeometry>
        </mxCell>
        <mxCell id="b79uXGGeb3DcNZu2dP1U-32" value="" style="endArrow=classic;html=1;rounded=0;entryX=0.5;entryY=0;entryDx=0;entryDy=0;exitX=0.5;exitY=1;exitDx=0;exitDy=0;exitPerimeter=0;" edge="1" parent="1">
          <mxGeometry width="50" height="50" relative="1" as="geometry">
            <mxPoint x="589.5" y="320" as="sourcePoint" />
            <mxPoint x="589.5" y="370" as="targetPoint" />
          </mxGeometry>
        </mxCell>
        <mxCell id="b79uXGGeb3DcNZu2dP1U-33" value="" style="endArrow=classic;html=1;rounded=0;entryX=0.783;entryY=0.05;entryDx=0;entryDy=0;exitX=0;exitY=1;exitDx=0;exitDy=0;entryPerimeter=0;" edge="1" parent="1" source="b79uXGGeb3DcNZu2dP1U-1" target="b79uXGGeb3DcNZu2dP1U-4">
          <mxGeometry width="50" height="50" relative="1" as="geometry">
            <mxPoint x="230" y="320" as="sourcePoint" />
            <mxPoint x="230" y="370" as="targetPoint" />
          </mxGeometry>
        </mxCell>
        <mxCell id="b79uXGGeb3DcNZu2dP1U-34" value="" style="endArrow=classic;html=1;rounded=0;exitX=0;exitY=0.667;exitDx=0;exitDy=0;exitPerimeter=0;" edge="1" parent="1" source="b79uXGGeb3DcNZu2dP1U-6" target="b79uXGGeb3DcNZu2dP1U-4">
          <mxGeometry width="50" height="50" relative="1" as="geometry">
            <mxPoint x="330" y="320" as="sourcePoint" />
            <mxPoint x="330" y="370" as="targetPoint" />
          </mxGeometry>
        </mxCell>
        <mxCell id="b79uXGGeb3DcNZu2dP1U-35" value="" style="endArrow=classic;html=1;rounded=0;entryX=0.5;entryY=0;entryDx=0;entryDy=0;exitX=0.5;exitY=1;exitDx=0;exitDy=0;exitPerimeter=0;" edge="1" parent="1">
          <mxGeometry width="50" height="50" relative="1" as="geometry">
            <mxPoint x="390" y="320" as="sourcePoint" />
            <mxPoint x="390" y="370" as="targetPoint" />
          </mxGeometry>
        </mxCell>
        <mxCell id="b79uXGGeb3DcNZu2dP1U-36" value="" style="endArrow=classic;html=1;rounded=0;entryX=0;entryY=0;entryDx=0;entryDy=0;exitX=1;exitY=1;exitDx=0;exitDy=0;" edge="1" parent="1" source="b79uXGGeb3DcNZu2dP1U-6" target="b79uXGGeb3DcNZu2dP1U-11">
          <mxGeometry width="50" height="50" relative="1" as="geometry">
            <mxPoint x="419" y="310" as="sourcePoint" />
            <mxPoint x="419" y="360" as="targetPoint" />
          </mxGeometry>
        </mxCell>
        <mxCell id="b79uXGGeb3DcNZu2dP1U-38" value="" style="endArrow=classic;html=1;rounded=0;exitX=0;exitY=1;exitDx=0;exitDy=0;" edge="1" parent="1" source="b79uXGGeb3DcNZu2dP1U-5" target="b79uXGGeb3DcNZu2dP1U-8">
          <mxGeometry width="50" height="50" relative="1" as="geometry">
            <mxPoint x="509.5" y="330" as="sourcePoint" />
            <mxPoint x="509.5" y="380" as="targetPoint" />
          </mxGeometry>
        </mxCell>
        <mxCell id="b79uXGGeb3DcNZu2dP1U-39" value="" style="endArrow=classic;html=1;rounded=0;entryX=1.05;entryY=0.35;entryDx=0;entryDy=0;exitX=0.167;exitY=0.983;exitDx=0;exitDy=0;exitPerimeter=0;entryPerimeter=0;" edge="1" parent="1" source="b79uXGGeb3DcNZu2dP1U-10" target="b79uXGGeb3DcNZu2dP1U-8">
          <mxGeometry width="50" height="50" relative="1" as="geometry">
            <mxPoint x="519.5" y="340" as="sourcePoint" />
            <mxPoint x="519.5" y="390" as="targetPoint" />
          </mxGeometry>
        </mxCell>
        <mxCell id="b79uXGGeb3DcNZu2dP1U-40" value="" style="endArrow=classic;html=1;rounded=0;entryX=1;entryY=0;entryDx=0;entryDy=0;exitX=0.367;exitY=1.017;exitDx=0;exitDy=0;exitPerimeter=0;" edge="1" parent="1" source="b79uXGGeb3DcNZu2dP1U-9" target="b79uXGGeb3DcNZu2dP1U-12">
          <mxGeometry width="50" height="50" relative="1" as="geometry">
            <mxPoint x="529.5" y="350" as="sourcePoint" />
            <mxPoint x="529.5" y="400" as="targetPoint" />
          </mxGeometry>
        </mxCell>
      </root>
    </mxGraphModel>
  </diagram>
  <diagram id="viEm1JJ-7opUA1twmWJ5" name="Page-2">
    <mxGraphModel dx="1422" dy="754" grid="1" gridSize="10" guides="1" tooltips="1" connect="1" arrows="1" fold="1" page="1" pageScale="1" pageWidth="827" pageHeight="1169" math="0" shadow="0">
      <root>
        <mxCell id="0" />
        <mxCell id="1" parent="0" />
        <mxCell id="G5aDs3UHElP0sls1VNK5-1" value="" style="ellipse;whiteSpace=wrap;html=1;" vertex="1" parent="1">
          <mxGeometry x="260" y="260" width="60" height="60" as="geometry" />
        </mxCell>
        <mxCell id="G5aDs3UHElP0sls1VNK5-2" value="" style="ellipse;whiteSpace=wrap;html=1;" vertex="1" parent="1">
          <mxGeometry x="150" y="260" width="60" height="60" as="geometry" />
        </mxCell>
        <mxCell id="G5aDs3UHElP0sls1VNK5-3" value="" style="ellipse;whiteSpace=wrap;html=1;" vertex="1" parent="1">
          <mxGeometry x="260" y="370" width="60" height="60" as="geometry" />
        </mxCell>
        <mxCell id="G5aDs3UHElP0sls1VNK5-4" value="" style="ellipse;whiteSpace=wrap;html=1;" vertex="1" parent="1">
          <mxGeometry x="150" y="370" width="60" height="60" as="geometry" />
        </mxCell>
        <mxCell id="G5aDs3UHElP0sls1VNK5-5" value="" style="edgeStyle=orthogonalEdgeStyle;rounded=0;orthogonalLoop=1;jettySize=auto;html=1;" edge="1" parent="1" source="G5aDs3UHElP0sls1VNK5-6" target="G5aDs3UHElP0sls1VNK5-8">
          <mxGeometry relative="1" as="geometry" />
        </mxCell>
        <mxCell id="G5aDs3UHElP0sls1VNK5-6" value="" style="ellipse;whiteSpace=wrap;html=1;" vertex="1" parent="1">
          <mxGeometry x="470" y="260" width="60" height="60" as="geometry" />
        </mxCell>
        <mxCell id="G5aDs3UHElP0sls1VNK5-7" value="" style="ellipse;whiteSpace=wrap;html=1;" vertex="1" parent="1">
          <mxGeometry x="360" y="260" width="60" height="60" as="geometry" />
        </mxCell>
        <mxCell id="G5aDs3UHElP0sls1VNK5-8" value="" style="ellipse;whiteSpace=wrap;html=1;" vertex="1" parent="1">
          <mxGeometry x="470" y="370" width="60" height="60" as="geometry" />
        </mxCell>
        <mxCell id="G5aDs3UHElP0sls1VNK5-9" value="" style="ellipse;whiteSpace=wrap;html=1;" vertex="1" parent="1">
          <mxGeometry x="360" y="370" width="60" height="60" as="geometry" />
        </mxCell>
        <mxCell id="G5aDs3UHElP0sls1VNK5-10" value="" style="ellipse;whiteSpace=wrap;html=1;" vertex="1" parent="1">
          <mxGeometry x="670" y="260" width="60" height="60" as="geometry" />
        </mxCell>
        <mxCell id="G5aDs3UHElP0sls1VNK5-11" value="" style="ellipse;whiteSpace=wrap;html=1;" vertex="1" parent="1">
          <mxGeometry x="560" y="260" width="60" height="60" as="geometry" />
        </mxCell>
        <mxCell id="G5aDs3UHElP0sls1VNK5-12" value="" style="ellipse;whiteSpace=wrap;html=1;" vertex="1" parent="1">
          <mxGeometry x="670" y="370" width="60" height="60" as="geometry" />
        </mxCell>
        <mxCell id="G5aDs3UHElP0sls1VNK5-13" value="" style="ellipse;whiteSpace=wrap;html=1;" vertex="1" parent="1">
          <mxGeometry x="560" y="370" width="60" height="60" as="geometry" />
        </mxCell>
        <mxCell id="G5aDs3UHElP0sls1VNK5-14" value="S" style="ellipse;whiteSpace=wrap;html=1;" vertex="1" parent="1">
          <mxGeometry x="410" y="130" width="60" height="60" as="geometry" />
        </mxCell>
        <mxCell id="G5aDs3UHElP0sls1VNK5-15" value="t" style="ellipse;whiteSpace=wrap;html=1;" vertex="1" parent="1">
          <mxGeometry x="410" y="500" width="60" height="60" as="geometry" />
        </mxCell>
        <mxCell id="G5aDs3UHElP0sls1VNK5-16" value="" style="endArrow=classic;html=1;rounded=0;" edge="1" parent="1">
          <mxGeometry width="50" height="50" relative="1" as="geometry">
            <mxPoint x="420" y="200" as="sourcePoint" />
            <mxPoint x="400" y="250" as="targetPoint" />
            <Array as="points" />
          </mxGeometry>
        </mxCell>
        <mxCell id="G5aDs3UHElP0sls1VNK5-17" value="" style="endArrow=classic;html=1;rounded=0;" edge="1" parent="1">
          <mxGeometry width="50" height="50" relative="1" as="geometry">
            <mxPoint x="460" y="200" as="sourcePoint" />
            <mxPoint x="490" y="250" as="targetPoint" />
          </mxGeometry>
        </mxCell>
        <mxCell id="G5aDs3UHElP0sls1VNK5-18" value="" style="endArrow=classic;html=1;rounded=0;" edge="1" parent="1">
          <mxGeometry width="50" height="50" relative="1" as="geometry">
            <mxPoint x="480" y="190" as="sourcePoint" />
            <mxPoint x="580" y="250" as="targetPoint" />
          </mxGeometry>
        </mxCell>
        <mxCell id="G5aDs3UHElP0sls1VNK5-19" value="" style="endArrow=classic;html=1;rounded=0;fillColor=#ffe6cc;strokeColor=#d79b00;" edge="1" parent="1">
          <mxGeometry width="50" height="50" relative="1" as="geometry">
            <mxPoint x="480" y="160" as="sourcePoint" />
            <mxPoint x="660" y="260" as="targetPoint" />
          </mxGeometry>
        </mxCell>
        <mxCell id="G5aDs3UHElP0sls1VNK5-20" value="" style="endArrow=classic;html=1;rounded=0;" edge="1" parent="1">
          <mxGeometry width="50" height="50" relative="1" as="geometry">
            <mxPoint x="400" y="180" as="sourcePoint" />
            <mxPoint x="320" y="250" as="targetPoint" />
          </mxGeometry>
        </mxCell>
        <mxCell id="G5aDs3UHElP0sls1VNK5-21" value="" style="endArrow=classic;html=1;rounded=0;" edge="1" parent="1">
          <mxGeometry width="50" height="50" relative="1" as="geometry">
            <mxPoint x="390" y="160" as="sourcePoint" />
            <mxPoint x="210" y="260" as="targetPoint" />
          </mxGeometry>
        </mxCell>
        <mxCell id="G5aDs3UHElP0sls1VNK5-22" value="" style="endArrow=classic;html=1;rounded=0;" edge="1" parent="1">
          <mxGeometry width="50" height="50" relative="1" as="geometry">
            <mxPoint x="680" y="440" as="sourcePoint" />
            <mxPoint x="480" y="520" as="targetPoint" />
          </mxGeometry>
        </mxCell>
        <mxCell id="G5aDs3UHElP0sls1VNK5-23" value="" style="endArrow=classic;html=1;rounded=0;fillColor=#ffe6cc;strokeColor=#d79b00;" edge="1" parent="1">
          <mxGeometry width="50" height="50" relative="1" as="geometry">
            <mxPoint x="560" y="440" as="sourcePoint" />
            <mxPoint x="480" y="500" as="targetPoint" />
          </mxGeometry>
        </mxCell>
        <mxCell id="G5aDs3UHElP0sls1VNK5-24" value="" style="endArrow=classic;html=1;rounded=0;" edge="1" parent="1">
          <mxGeometry width="50" height="50" relative="1" as="geometry">
            <mxPoint x="490" y="440" as="sourcePoint" />
            <mxPoint x="460" y="490" as="targetPoint" />
          </mxGeometry>
        </mxCell>
        <mxCell id="G5aDs3UHElP0sls1VNK5-25" value="" style="endArrow=classic;html=1;rounded=0;" edge="1" parent="1">
          <mxGeometry width="50" height="50" relative="1" as="geometry">
            <mxPoint x="390" y="440" as="sourcePoint" />
            <mxPoint x="420" y="490" as="targetPoint" />
          </mxGeometry>
        </mxCell>
        <mxCell id="G5aDs3UHElP0sls1VNK5-26" value="" style="endArrow=classic;html=1;rounded=0;" edge="1" parent="1">
          <mxGeometry width="50" height="50" relative="1" as="geometry">
            <mxPoint x="300" y="440" as="sourcePoint" />
            <mxPoint x="390" y="510" as="targetPoint" />
          </mxGeometry>
        </mxCell>
        <mxCell id="G5aDs3UHElP0sls1VNK5-27" value="" style="endArrow=classic;html=1;rounded=0;" edge="1" parent="1">
          <mxGeometry width="50" height="50" relative="1" as="geometry">
            <mxPoint x="210" y="440" as="sourcePoint" />
            <mxPoint x="380" y="530" as="targetPoint" />
          </mxGeometry>
        </mxCell>
        <mxCell id="G5aDs3UHElP0sls1VNK5-28" value="" style="endArrow=classic;html=1;rounded=0;entryX=0.5;entryY=0;entryDx=0;entryDy=0;exitX=0.5;exitY=1;exitDx=0;exitDy=0;exitPerimeter=0;" edge="1" parent="1" source="G5aDs3UHElP0sls1VNK5-2" target="G5aDs3UHElP0sls1VNK5-4">
          <mxGeometry width="50" height="50" relative="1" as="geometry">
            <mxPoint x="180" y="330" as="sourcePoint" />
            <mxPoint x="440" y="360" as="targetPoint" />
          </mxGeometry>
        </mxCell>
        <mxCell id="G5aDs3UHElP0sls1VNK5-29" value="" style="endArrow=classic;html=1;rounded=0;entryX=0.5;entryY=0;entryDx=0;entryDy=0;exitX=0.5;exitY=1;exitDx=0;exitDy=0;exitPerimeter=0;" edge="1" parent="1">
          <mxGeometry width="50" height="50" relative="1" as="geometry">
            <mxPoint x="289.5" y="320" as="sourcePoint" />
            <mxPoint x="289.5" y="370" as="targetPoint" />
          </mxGeometry>
        </mxCell>
        <mxCell id="G5aDs3UHElP0sls1VNK5-30" value="" style="endArrow=classic;html=1;rounded=0;entryX=0.5;entryY=0;entryDx=0;entryDy=0;exitX=0.5;exitY=1;exitDx=0;exitDy=0;exitPerimeter=0;" edge="1" parent="1">
          <mxGeometry width="50" height="50" relative="1" as="geometry">
            <mxPoint x="499.5" y="320" as="sourcePoint" />
            <mxPoint x="499.5" y="370" as="targetPoint" />
          </mxGeometry>
        </mxCell>
        <mxCell id="G5aDs3UHElP0sls1VNK5-31" value="" style="endArrow=classic;html=1;rounded=0;entryX=0.5;entryY=0;entryDx=0;entryDy=0;exitX=0.5;exitY=1;exitDx=0;exitDy=0;exitPerimeter=0;" edge="1" parent="1">
          <mxGeometry width="50" height="50" relative="1" as="geometry">
            <mxPoint x="589.5" y="320" as="sourcePoint" />
            <mxPoint x="589.5" y="370" as="targetPoint" />
          </mxGeometry>
        </mxCell>
        <mxCell id="G5aDs3UHElP0sls1VNK5-32" value="" style="endArrow=classic;html=1;rounded=0;entryX=0.783;entryY=0.05;entryDx=0;entryDy=0;exitX=0;exitY=1;exitDx=0;exitDy=0;entryPerimeter=0;" edge="1" parent="1" source="G5aDs3UHElP0sls1VNK5-1" target="G5aDs3UHElP0sls1VNK5-4">
          <mxGeometry width="50" height="50" relative="1" as="geometry">
            <mxPoint x="230" y="320" as="sourcePoint" />
            <mxPoint x="230" y="370" as="targetPoint" />
          </mxGeometry>
        </mxCell>
        <mxCell id="G5aDs3UHElP0sls1VNK5-33" value="" style="endArrow=classic;html=1;rounded=0;exitX=0;exitY=0.667;exitDx=0;exitDy=0;exitPerimeter=0;" edge="1" parent="1" source="G5aDs3UHElP0sls1VNK5-7" target="G5aDs3UHElP0sls1VNK5-4">
          <mxGeometry width="50" height="50" relative="1" as="geometry">
            <mxPoint x="330" y="320" as="sourcePoint" />
            <mxPoint x="330" y="370" as="targetPoint" />
          </mxGeometry>
        </mxCell>
        <mxCell id="G5aDs3UHElP0sls1VNK5-34" value="" style="endArrow=classic;html=1;rounded=0;entryX=0.5;entryY=0;entryDx=0;entryDy=0;exitX=0.5;exitY=1;exitDx=0;exitDy=0;exitPerimeter=0;" edge="1" parent="1">
          <mxGeometry width="50" height="50" relative="1" as="geometry">
            <mxPoint x="390" y="320" as="sourcePoint" />
            <mxPoint x="390" y="370" as="targetPoint" />
          </mxGeometry>
        </mxCell>
        <mxCell id="G5aDs3UHElP0sls1VNK5-35" value="" style="endArrow=classic;html=1;rounded=0;entryX=0;entryY=0;entryDx=0;entryDy=0;exitX=1;exitY=1;exitDx=0;exitDy=0;" edge="1" parent="1" source="G5aDs3UHElP0sls1VNK5-7" target="G5aDs3UHElP0sls1VNK5-12">
          <mxGeometry width="50" height="50" relative="1" as="geometry">
            <mxPoint x="419" y="310" as="sourcePoint" />
            <mxPoint x="419" y="360" as="targetPoint" />
          </mxGeometry>
        </mxCell>
        <mxCell id="G5aDs3UHElP0sls1VNK5-36" value="" style="endArrow=classic;html=1;rounded=0;exitX=0;exitY=1;exitDx=0;exitDy=0;" edge="1" parent="1" source="G5aDs3UHElP0sls1VNK5-6" target="G5aDs3UHElP0sls1VNK5-9">
          <mxGeometry width="50" height="50" relative="1" as="geometry">
            <mxPoint x="509.5" y="330" as="sourcePoint" />
            <mxPoint x="509.5" y="380" as="targetPoint" />
          </mxGeometry>
        </mxCell>
        <mxCell id="G5aDs3UHElP0sls1VNK5-37" value="" style="endArrow=classic;html=1;rounded=0;entryX=1.05;entryY=0.35;entryDx=0;entryDy=0;exitX=0.167;exitY=0.983;exitDx=0;exitDy=0;exitPerimeter=0;entryPerimeter=0;" edge="1" parent="1" source="G5aDs3UHElP0sls1VNK5-11" target="G5aDs3UHElP0sls1VNK5-9">
          <mxGeometry width="50" height="50" relative="1" as="geometry">
            <mxPoint x="519.5" y="340" as="sourcePoint" />
            <mxPoint x="519.5" y="390" as="targetPoint" />
          </mxGeometry>
        </mxCell>
        <mxCell id="G5aDs3UHElP0sls1VNK5-38" value="" style="endArrow=classic;html=1;rounded=0;entryX=1;entryY=0;entryDx=0;entryDy=0;exitX=0.367;exitY=1.017;exitDx=0;exitDy=0;exitPerimeter=0;fillColor=#ffe6cc;strokeColor=#d79b00;" edge="1" parent="1" source="G5aDs3UHElP0sls1VNK5-10" target="G5aDs3UHElP0sls1VNK5-13">
          <mxGeometry width="50" height="50" relative="1" as="geometry">
            <mxPoint x="529.5" y="350" as="sourcePoint" />
            <mxPoint x="529.5" y="400" as="targetPoint" />
          </mxGeometry>
        </mxCell>
        <mxCell id="G5aDs3UHElP0sls1VNK5-39" value="1" style="text;html=1;strokeColor=none;fillColor=none;align=center;verticalAlign=middle;whiteSpace=wrap;rounded=0;" vertex="1" parent="1">
          <mxGeometry x="270" y="170" width="20" height="30" as="geometry" />
        </mxCell>
        <mxCell id="G5aDs3UHElP0sls1VNK5-41" value="1" style="text;html=1;strokeColor=none;fillColor=none;align=center;verticalAlign=middle;whiteSpace=wrap;rounded=0;" vertex="1" parent="1">
          <mxGeometry x="320" y="200" width="20" height="30" as="geometry" />
        </mxCell>
        <mxCell id="G5aDs3UHElP0sls1VNK5-42" value="1" style="text;html=1;strokeColor=none;fillColor=none;align=center;verticalAlign=middle;whiteSpace=wrap;rounded=0;" vertex="1" parent="1">
          <mxGeometry x="380" y="210" width="20" height="30" as="geometry" />
        </mxCell>
        <mxCell id="G5aDs3UHElP0sls1VNK5-43" value="1" style="text;html=1;strokeColor=none;fillColor=none;align=center;verticalAlign=middle;whiteSpace=wrap;rounded=0;" vertex="1" parent="1">
          <mxGeometry x="450" y="210" width="20" height="30" as="geometry" />
        </mxCell>
        <mxCell id="G5aDs3UHElP0sls1VNK5-44" value="1" style="text;html=1;strokeColor=none;fillColor=none;align=center;verticalAlign=middle;whiteSpace=wrap;rounded=0;" vertex="1" parent="1">
          <mxGeometry x="500" y="210" width="20" height="30" as="geometry" />
        </mxCell>
        <mxCell id="G5aDs3UHElP0sls1VNK5-45" value="1" style="text;html=1;strokeColor=none;fillColor=none;align=center;verticalAlign=middle;whiteSpace=wrap;rounded=0;fontColor=#FFB570;" vertex="1" parent="1">
          <mxGeometry x="570" y="170" width="20" height="30" as="geometry" />
        </mxCell>
        <mxCell id="G5aDs3UHElP0sls1VNK5-46" value="1" style="text;html=1;align=center;verticalAlign=middle;whiteSpace=wrap;rounded=0;fontColor=#FFB570;" vertex="1" parent="1">
          <mxGeometry x="640" y="310" width="20" height="30" as="geometry" />
        </mxCell>
        <mxCell id="G5aDs3UHElP0sls1VNK5-50" value="1" style="text;html=1;strokeColor=none;fillColor=none;align=center;verticalAlign=middle;whiteSpace=wrap;rounded=0;" vertex="1" parent="1">
          <mxGeometry x="590" y="320" width="20" height="30" as="geometry" />
        </mxCell>
        <mxCell id="G5aDs3UHElP0sls1VNK5-51" value="1" style="text;html=1;strokeColor=none;fillColor=none;align=center;verticalAlign=middle;whiteSpace=wrap;rounded=0;" vertex="1" parent="1">
          <mxGeometry x="530" y="300" width="20" height="30" as="geometry" />
        </mxCell>
        <mxCell id="G5aDs3UHElP0sls1VNK5-54" value="1" style="text;html=1;strokeColor=none;fillColor=none;align=center;verticalAlign=middle;whiteSpace=wrap;rounded=0;" vertex="1" parent="1">
          <mxGeometry x="480" y="330" width="20" height="30" as="geometry" />
        </mxCell>
        <mxCell id="G5aDs3UHElP0sls1VNK5-55" value="1" style="text;html=1;strokeColor=none;fillColor=none;align=center;verticalAlign=middle;whiteSpace=wrap;rounded=0;" vertex="1" parent="1">
          <mxGeometry x="560" y="320" width="20" height="30" as="geometry" />
        </mxCell>
        <mxCell id="G5aDs3UHElP0sls1VNK5-56" value="1" style="text;html=1;strokeColor=none;fillColor=none;align=center;verticalAlign=middle;whiteSpace=wrap;rounded=0;" vertex="1" parent="1">
          <mxGeometry x="390" y="330" width="20" height="30" as="geometry" />
        </mxCell>
        <mxCell id="G5aDs3UHElP0sls1VNK5-57" value="1" style="text;html=1;strokeColor=none;fillColor=none;align=center;verticalAlign=middle;whiteSpace=wrap;rounded=0;" vertex="1" parent="1">
          <mxGeometry x="290" y="330" width="20" height="30" as="geometry" />
        </mxCell>
        <mxCell id="G5aDs3UHElP0sls1VNK5-58" value="1" style="text;html=1;strokeColor=none;fillColor=none;align=center;verticalAlign=middle;whiteSpace=wrap;rounded=0;" vertex="1" parent="1">
          <mxGeometry x="320" y="320" width="20" height="30" as="geometry" />
        </mxCell>
        <mxCell id="G5aDs3UHElP0sls1VNK5-59" value="1" style="text;html=1;strokeColor=none;fillColor=none;align=center;verticalAlign=middle;whiteSpace=wrap;rounded=0;" vertex="1" parent="1">
          <mxGeometry x="210" y="310" width="20" height="30" as="geometry" />
        </mxCell>
        <mxCell id="G5aDs3UHElP0sls1VNK5-60" value="1" style="text;html=1;strokeColor=none;fillColor=none;align=center;verticalAlign=middle;whiteSpace=wrap;rounded=0;" vertex="1" parent="1">
          <mxGeometry x="150" y="330" width="20" height="30" as="geometry" />
        </mxCell>
        <mxCell id="G5aDs3UHElP0sls1VNK5-61" value="1" style="text;html=1;strokeColor=none;fillColor=none;align=center;verticalAlign=middle;whiteSpace=wrap;rounded=0;" vertex="1" parent="1">
          <mxGeometry x="600" y="480" width="20" height="30" as="geometry" />
        </mxCell>
        <mxCell id="G5aDs3UHElP0sls1VNK5-62" value="1" style="text;html=1;strokeColor=none;fillColor=none;align=center;verticalAlign=middle;whiteSpace=wrap;rounded=0;fontColor=#FFB570;" vertex="1" parent="1">
          <mxGeometry x="530" y="460" width="20" height="30" as="geometry" />
        </mxCell>
        <mxCell id="G5aDs3UHElP0sls1VNK5-63" value="1" style="text;html=1;strokeColor=none;fillColor=none;align=center;verticalAlign=middle;whiteSpace=wrap;rounded=0;" vertex="1" parent="1">
          <mxGeometry x="480" y="450" width="20" height="30" as="geometry" />
        </mxCell>
        <mxCell id="G5aDs3UHElP0sls1VNK5-64" value="1" style="text;html=1;strokeColor=none;fillColor=none;align=center;verticalAlign=middle;whiteSpace=wrap;rounded=0;" vertex="1" parent="1">
          <mxGeometry x="410" y="440" width="20" height="30" as="geometry" />
        </mxCell>
        <mxCell id="G5aDs3UHElP0sls1VNK5-65" value="1" style="text;html=1;strokeColor=none;fillColor=none;align=center;verticalAlign=middle;whiteSpace=wrap;rounded=0;" vertex="1" parent="1">
          <mxGeometry x="340" y="440" width="20" height="30" as="geometry" />
        </mxCell>
        <mxCell id="G5aDs3UHElP0sls1VNK5-66" value="1" style="text;html=1;strokeColor=none;fillColor=none;align=center;verticalAlign=middle;whiteSpace=wrap;rounded=0;" vertex="1" parent="1">
          <mxGeometry x="300" y="460" width="20" height="30" as="geometry" />
        </mxCell>
      </root>
    </mxGraphModel>
  </diagram>
  <diagram id="kwtn7ZqYGUb5gG0Pi0oQ" name="Page-3">
    <mxGraphModel dx="1422" dy="754" grid="1" gridSize="10" guides="1" tooltips="1" connect="1" arrows="1" fold="1" page="1" pageScale="1" pageWidth="827" pageHeight="1169" math="0" shadow="0">
      <root>
        <mxCell id="0" />
        <mxCell id="1" parent="0" />
        <mxCell id="jziW0w5y_bbhbGW9cz96-1" value="" style="ellipse;whiteSpace=wrap;html=1;" vertex="1" parent="1">
          <mxGeometry x="260" y="260" width="60" height="60" as="geometry" />
        </mxCell>
        <mxCell id="jziW0w5y_bbhbGW9cz96-2" value="" style="ellipse;whiteSpace=wrap;html=1;" vertex="1" parent="1">
          <mxGeometry x="150" y="260" width="60" height="60" as="geometry" />
        </mxCell>
        <mxCell id="jziW0w5y_bbhbGW9cz96-3" value="" style="ellipse;whiteSpace=wrap;html=1;" vertex="1" parent="1">
          <mxGeometry x="260" y="370" width="60" height="60" as="geometry" />
        </mxCell>
        <mxCell id="jziW0w5y_bbhbGW9cz96-4" value="" style="ellipse;whiteSpace=wrap;html=1;" vertex="1" parent="1">
          <mxGeometry x="150" y="370" width="60" height="60" as="geometry" />
        </mxCell>
        <mxCell id="jziW0w5y_bbhbGW9cz96-5" value="" style="edgeStyle=orthogonalEdgeStyle;rounded=0;orthogonalLoop=1;jettySize=auto;html=1;" edge="1" parent="1" source="jziW0w5y_bbhbGW9cz96-6" target="jziW0w5y_bbhbGW9cz96-8">
          <mxGeometry relative="1" as="geometry" />
        </mxCell>
        <mxCell id="jziW0w5y_bbhbGW9cz96-6" value="" style="ellipse;whiteSpace=wrap;html=1;" vertex="1" parent="1">
          <mxGeometry x="470" y="260" width="60" height="60" as="geometry" />
        </mxCell>
        <mxCell id="jziW0w5y_bbhbGW9cz96-7" value="" style="ellipse;whiteSpace=wrap;html=1;" vertex="1" parent="1">
          <mxGeometry x="360" y="260" width="60" height="60" as="geometry" />
        </mxCell>
        <mxCell id="jziW0w5y_bbhbGW9cz96-8" value="" style="ellipse;whiteSpace=wrap;html=1;" vertex="1" parent="1">
          <mxGeometry x="470" y="370" width="60" height="60" as="geometry" />
        </mxCell>
        <mxCell id="jziW0w5y_bbhbGW9cz96-9" value="" style="ellipse;whiteSpace=wrap;html=1;" vertex="1" parent="1">
          <mxGeometry x="360" y="370" width="60" height="60" as="geometry" />
        </mxCell>
        <mxCell id="jziW0w5y_bbhbGW9cz96-10" value="" style="ellipse;whiteSpace=wrap;html=1;" vertex="1" parent="1">
          <mxGeometry x="670" y="260" width="60" height="60" as="geometry" />
        </mxCell>
        <mxCell id="jziW0w5y_bbhbGW9cz96-11" value="" style="ellipse;whiteSpace=wrap;html=1;" vertex="1" parent="1">
          <mxGeometry x="560" y="260" width="60" height="60" as="geometry" />
        </mxCell>
        <mxCell id="jziW0w5y_bbhbGW9cz96-12" value="" style="ellipse;whiteSpace=wrap;html=1;" vertex="1" parent="1">
          <mxGeometry x="670" y="370" width="60" height="60" as="geometry" />
        </mxCell>
        <mxCell id="jziW0w5y_bbhbGW9cz96-13" value="" style="ellipse;whiteSpace=wrap;html=1;" vertex="1" parent="1">
          <mxGeometry x="560" y="370" width="60" height="60" as="geometry" />
        </mxCell>
        <mxCell id="jziW0w5y_bbhbGW9cz96-14" value="S" style="ellipse;whiteSpace=wrap;html=1;" vertex="1" parent="1">
          <mxGeometry x="410" y="130" width="60" height="60" as="geometry" />
        </mxCell>
        <mxCell id="jziW0w5y_bbhbGW9cz96-15" value="t" style="ellipse;whiteSpace=wrap;html=1;" vertex="1" parent="1">
          <mxGeometry x="410" y="500" width="60" height="60" as="geometry" />
        </mxCell>
        <mxCell id="jziW0w5y_bbhbGW9cz96-16" value="" style="endArrow=classic;html=1;rounded=0;" edge="1" parent="1">
          <mxGeometry width="50" height="50" relative="1" as="geometry">
            <mxPoint x="420" y="200" as="sourcePoint" />
            <mxPoint x="400" y="250" as="targetPoint" />
            <Array as="points" />
          </mxGeometry>
        </mxCell>
        <mxCell id="jziW0w5y_bbhbGW9cz96-17" value="" style="endArrow=classic;html=1;rounded=0;" edge="1" parent="1">
          <mxGeometry width="50" height="50" relative="1" as="geometry">
            <mxPoint x="460" y="200" as="sourcePoint" />
            <mxPoint x="490" y="250" as="targetPoint" />
          </mxGeometry>
        </mxCell>
        <mxCell id="jziW0w5y_bbhbGW9cz96-18" value="" style="endArrow=classic;html=1;rounded=0;fillColor=#ffe6cc;strokeColor=#d79b00;" edge="1" parent="1">
          <mxGeometry width="50" height="50" relative="1" as="geometry">
            <mxPoint x="480" y="190" as="sourcePoint" />
            <mxPoint x="560" y="250" as="targetPoint" />
          </mxGeometry>
        </mxCell>
        <mxCell id="jziW0w5y_bbhbGW9cz96-19" value="" style="endArrow=classic;html=1;rounded=0;fillColor=#ffe6cc;strokeColor=#000000;" edge="1" parent="1">
          <mxGeometry width="50" height="50" relative="1" as="geometry">
            <mxPoint x="660" y="280" as="sourcePoint" />
            <mxPoint x="480" y="170" as="targetPoint" />
          </mxGeometry>
        </mxCell>
        <mxCell id="jziW0w5y_bbhbGW9cz96-20" value="" style="endArrow=classic;html=1;rounded=0;" edge="1" parent="1">
          <mxGeometry width="50" height="50" relative="1" as="geometry">
            <mxPoint x="400" y="180" as="sourcePoint" />
            <mxPoint x="320" y="250" as="targetPoint" />
          </mxGeometry>
        </mxCell>
        <mxCell id="jziW0w5y_bbhbGW9cz96-21" value="" style="endArrow=classic;html=1;rounded=0;" edge="1" parent="1">
          <mxGeometry width="50" height="50" relative="1" as="geometry">
            <mxPoint x="390" y="160" as="sourcePoint" />
            <mxPoint x="210" y="260" as="targetPoint" />
          </mxGeometry>
        </mxCell>
        <mxCell id="jziW0w5y_bbhbGW9cz96-22" value="" style="endArrow=classic;html=1;rounded=0;" edge="1" parent="1">
          <mxGeometry width="50" height="50" relative="1" as="geometry">
            <mxPoint x="680" y="440" as="sourcePoint" />
            <mxPoint x="480" y="520" as="targetPoint" />
          </mxGeometry>
        </mxCell>
        <mxCell id="jziW0w5y_bbhbGW9cz96-23" value="" style="endArrow=classic;html=1;rounded=0;fillColor=#ffe6cc;strokeColor=#000000;" edge="1" parent="1">
          <mxGeometry width="50" height="50" relative="1" as="geometry">
            <mxPoint x="480" y="500" as="sourcePoint" />
            <mxPoint x="560" y="430" as="targetPoint" />
            <Array as="points" />
          </mxGeometry>
        </mxCell>
        <mxCell id="jziW0w5y_bbhbGW9cz96-24" value="" style="endArrow=classic;html=1;rounded=0;" edge="1" parent="1">
          <mxGeometry width="50" height="50" relative="1" as="geometry">
            <mxPoint x="490" y="440" as="sourcePoint" />
            <mxPoint x="460" y="490" as="targetPoint" />
          </mxGeometry>
        </mxCell>
        <mxCell id="jziW0w5y_bbhbGW9cz96-25" value="" style="endArrow=classic;html=1;rounded=0;fillColor=#ffe6cc;strokeColor=#d79b00;" edge="1" parent="1">
          <mxGeometry width="50" height="50" relative="1" as="geometry">
            <mxPoint x="390" y="440" as="sourcePoint" />
            <mxPoint x="420" y="490" as="targetPoint" />
          </mxGeometry>
        </mxCell>
        <mxCell id="jziW0w5y_bbhbGW9cz96-26" value="" style="endArrow=classic;html=1;rounded=0;" edge="1" parent="1">
          <mxGeometry width="50" height="50" relative="1" as="geometry">
            <mxPoint x="300" y="440" as="sourcePoint" />
            <mxPoint x="390" y="510" as="targetPoint" />
          </mxGeometry>
        </mxCell>
        <mxCell id="jziW0w5y_bbhbGW9cz96-27" value="" style="endArrow=classic;html=1;rounded=0;" edge="1" parent="1">
          <mxGeometry width="50" height="50" relative="1" as="geometry">
            <mxPoint x="210" y="440" as="sourcePoint" />
            <mxPoint x="380" y="530" as="targetPoint" />
          </mxGeometry>
        </mxCell>
        <mxCell id="jziW0w5y_bbhbGW9cz96-28" value="" style="endArrow=classic;html=1;rounded=0;entryX=0.5;entryY=0;entryDx=0;entryDy=0;exitX=0.5;exitY=1;exitDx=0;exitDy=0;exitPerimeter=0;" edge="1" parent="1" source="jziW0w5y_bbhbGW9cz96-2" target="jziW0w5y_bbhbGW9cz96-4">
          <mxGeometry width="50" height="50" relative="1" as="geometry">
            <mxPoint x="180" y="330" as="sourcePoint" />
            <mxPoint x="440" y="360" as="targetPoint" />
          </mxGeometry>
        </mxCell>
        <mxCell id="jziW0w5y_bbhbGW9cz96-29" value="" style="endArrow=classic;html=1;rounded=0;entryX=0.5;entryY=0;entryDx=0;entryDy=0;exitX=0.5;exitY=1;exitDx=0;exitDy=0;exitPerimeter=0;" edge="1" parent="1">
          <mxGeometry width="50" height="50" relative="1" as="geometry">
            <mxPoint x="289.5" y="320" as="sourcePoint" />
            <mxPoint x="289.5" y="370" as="targetPoint" />
          </mxGeometry>
        </mxCell>
        <mxCell id="jziW0w5y_bbhbGW9cz96-30" value="" style="endArrow=classic;html=1;rounded=0;entryX=0.5;entryY=0;entryDx=0;entryDy=0;exitX=0.5;exitY=1;exitDx=0;exitDy=0;exitPerimeter=0;" edge="1" parent="1">
          <mxGeometry width="50" height="50" relative="1" as="geometry">
            <mxPoint x="499.5" y="320" as="sourcePoint" />
            <mxPoint x="499.5" y="370" as="targetPoint" />
          </mxGeometry>
        </mxCell>
        <mxCell id="jziW0w5y_bbhbGW9cz96-31" value="" style="endArrow=classic;html=1;rounded=0;entryX=0.5;entryY=0;entryDx=0;entryDy=0;exitX=0.5;exitY=1;exitDx=0;exitDy=0;exitPerimeter=0;fillColor=#ffe6cc;strokeColor=#000000;" edge="1" parent="1">
          <mxGeometry width="50" height="50" relative="1" as="geometry">
            <mxPoint x="589.5" y="320" as="sourcePoint" />
            <mxPoint x="589.5" y="370" as="targetPoint" />
          </mxGeometry>
        </mxCell>
        <mxCell id="jziW0w5y_bbhbGW9cz96-32" value="" style="endArrow=classic;html=1;rounded=0;entryX=0.783;entryY=0.05;entryDx=0;entryDy=0;exitX=0;exitY=1;exitDx=0;exitDy=0;entryPerimeter=0;" edge="1" parent="1" source="jziW0w5y_bbhbGW9cz96-1" target="jziW0w5y_bbhbGW9cz96-4">
          <mxGeometry width="50" height="50" relative="1" as="geometry">
            <mxPoint x="230" y="320" as="sourcePoint" />
            <mxPoint x="230" y="370" as="targetPoint" />
          </mxGeometry>
        </mxCell>
        <mxCell id="jziW0w5y_bbhbGW9cz96-33" value="" style="endArrow=classic;html=1;rounded=0;exitX=0;exitY=0.667;exitDx=0;exitDy=0;exitPerimeter=0;" edge="1" parent="1" source="jziW0w5y_bbhbGW9cz96-7" target="jziW0w5y_bbhbGW9cz96-4">
          <mxGeometry width="50" height="50" relative="1" as="geometry">
            <mxPoint x="330" y="320" as="sourcePoint" />
            <mxPoint x="330" y="370" as="targetPoint" />
          </mxGeometry>
        </mxCell>
        <mxCell id="jziW0w5y_bbhbGW9cz96-34" value="" style="endArrow=classic;html=1;rounded=0;entryX=0.5;entryY=0;entryDx=0;entryDy=0;exitX=0.5;exitY=1;exitDx=0;exitDy=0;exitPerimeter=0;" edge="1" parent="1">
          <mxGeometry width="50" height="50" relative="1" as="geometry">
            <mxPoint x="390" y="320" as="sourcePoint" />
            <mxPoint x="390" y="370" as="targetPoint" />
          </mxGeometry>
        </mxCell>
        <mxCell id="jziW0w5y_bbhbGW9cz96-35" value="" style="endArrow=classic;html=1;rounded=0;entryX=0;entryY=0;entryDx=0;entryDy=0;exitX=1;exitY=1;exitDx=0;exitDy=0;" edge="1" parent="1" source="jziW0w5y_bbhbGW9cz96-7" target="jziW0w5y_bbhbGW9cz96-12">
          <mxGeometry width="50" height="50" relative="1" as="geometry">
            <mxPoint x="419" y="310" as="sourcePoint" />
            <mxPoint x="419" y="360" as="targetPoint" />
          </mxGeometry>
        </mxCell>
        <mxCell id="jziW0w5y_bbhbGW9cz96-36" value="" style="endArrow=classic;html=1;rounded=0;exitX=0;exitY=1;exitDx=0;exitDy=0;" edge="1" parent="1" source="jziW0w5y_bbhbGW9cz96-6" target="jziW0w5y_bbhbGW9cz96-9">
          <mxGeometry width="50" height="50" relative="1" as="geometry">
            <mxPoint x="509.5" y="330" as="sourcePoint" />
            <mxPoint x="509.5" y="380" as="targetPoint" />
          </mxGeometry>
        </mxCell>
        <mxCell id="jziW0w5y_bbhbGW9cz96-37" value="" style="endArrow=classic;html=1;rounded=0;entryX=1.05;entryY=0.35;entryDx=0;entryDy=0;exitX=0.167;exitY=0.983;exitDx=0;exitDy=0;exitPerimeter=0;entryPerimeter=0;fillColor=#ffe6cc;strokeColor=#d79b00;" edge="1" parent="1" source="jziW0w5y_bbhbGW9cz96-11" target="jziW0w5y_bbhbGW9cz96-9">
          <mxGeometry width="50" height="50" relative="1" as="geometry">
            <mxPoint x="519.5" y="340" as="sourcePoint" />
            <mxPoint x="519.5" y="390" as="targetPoint" />
          </mxGeometry>
        </mxCell>
        <mxCell id="jziW0w5y_bbhbGW9cz96-38" value="" style="endArrow=classic;html=1;rounded=0;entryX=0.25;entryY=0.967;entryDx=0;entryDy=0;fillColor=#ffe6cc;strokeColor=#000000;fontColor=#000000;entryPerimeter=0;exitX=1;exitY=0;exitDx=0;exitDy=0;" edge="1" parent="1" source="jziW0w5y_bbhbGW9cz96-13" target="jziW0w5y_bbhbGW9cz96-10">
          <mxGeometry width="50" height="50" relative="1" as="geometry">
            <mxPoint x="630" y="379" as="sourcePoint" />
            <mxPoint x="529.5" y="400" as="targetPoint" />
          </mxGeometry>
        </mxCell>
        <mxCell id="jziW0w5y_bbhbGW9cz96-39" value="1" style="text;html=1;strokeColor=none;fillColor=none;align=center;verticalAlign=middle;whiteSpace=wrap;rounded=0;" vertex="1" parent="1">
          <mxGeometry x="270" y="170" width="20" height="30" as="geometry" />
        </mxCell>
        <mxCell id="jziW0w5y_bbhbGW9cz96-40" value="1" style="text;html=1;strokeColor=none;fillColor=none;align=center;verticalAlign=middle;whiteSpace=wrap;rounded=0;" vertex="1" parent="1">
          <mxGeometry x="320" y="200" width="20" height="30" as="geometry" />
        </mxCell>
        <mxCell id="jziW0w5y_bbhbGW9cz96-41" value="1" style="text;html=1;strokeColor=none;fillColor=none;align=center;verticalAlign=middle;whiteSpace=wrap;rounded=0;" vertex="1" parent="1">
          <mxGeometry x="380" y="210" width="20" height="30" as="geometry" />
        </mxCell>
        <mxCell id="jziW0w5y_bbhbGW9cz96-42" value="1" style="text;html=1;strokeColor=none;fillColor=none;align=center;verticalAlign=middle;whiteSpace=wrap;rounded=0;" vertex="1" parent="1">
          <mxGeometry x="450" y="210" width="20" height="30" as="geometry" />
        </mxCell>
        <mxCell id="jziW0w5y_bbhbGW9cz96-43" value="1" style="text;html=1;strokeColor=none;fillColor=none;align=center;verticalAlign=middle;whiteSpace=wrap;rounded=0;" vertex="1" parent="1">
          <mxGeometry x="500" y="210" width="20" height="30" as="geometry" />
        </mxCell>
        <mxCell id="jziW0w5y_bbhbGW9cz96-44" value="1" style="text;html=1;strokeColor=none;fillColor=none;align=center;verticalAlign=middle;whiteSpace=wrap;rounded=0;fontColor=#000000;" vertex="1" parent="1">
          <mxGeometry x="570" y="170" width="20" height="30" as="geometry" />
        </mxCell>
        <mxCell id="jziW0w5y_bbhbGW9cz96-45" value="1" style="text;html=1;align=center;verticalAlign=middle;whiteSpace=wrap;rounded=0;fontColor=#000000;" vertex="1" parent="1">
          <mxGeometry x="640" y="310" width="20" height="30" as="geometry" />
        </mxCell>
        <mxCell id="jziW0w5y_bbhbGW9cz96-46" value="1" style="text;html=1;strokeColor=none;fillColor=none;align=center;verticalAlign=middle;whiteSpace=wrap;rounded=0;" vertex="1" parent="1">
          <mxGeometry x="590" y="320" width="20" height="30" as="geometry" />
        </mxCell>
        <mxCell id="jziW0w5y_bbhbGW9cz96-47" value="1" style="text;html=1;strokeColor=none;fillColor=none;align=center;verticalAlign=middle;whiteSpace=wrap;rounded=0;" vertex="1" parent="1">
          <mxGeometry x="530" y="300" width="20" height="30" as="geometry" />
        </mxCell>
        <mxCell id="jziW0w5y_bbhbGW9cz96-48" value="1" style="text;html=1;strokeColor=none;fillColor=none;align=center;verticalAlign=middle;whiteSpace=wrap;rounded=0;" vertex="1" parent="1">
          <mxGeometry x="480" y="330" width="20" height="30" as="geometry" />
        </mxCell>
        <mxCell id="jziW0w5y_bbhbGW9cz96-49" value="1" style="text;html=1;strokeColor=none;fillColor=none;align=center;verticalAlign=middle;whiteSpace=wrap;rounded=0;" vertex="1" parent="1">
          <mxGeometry x="560" y="320" width="20" height="30" as="geometry" />
        </mxCell>
        <mxCell id="jziW0w5y_bbhbGW9cz96-50" value="1" style="text;html=1;strokeColor=none;fillColor=none;align=center;verticalAlign=middle;whiteSpace=wrap;rounded=0;" vertex="1" parent="1">
          <mxGeometry x="390" y="330" width="20" height="30" as="geometry" />
        </mxCell>
        <mxCell id="jziW0w5y_bbhbGW9cz96-51" value="1" style="text;html=1;strokeColor=none;fillColor=none;align=center;verticalAlign=middle;whiteSpace=wrap;rounded=0;" vertex="1" parent="1">
          <mxGeometry x="290" y="330" width="20" height="30" as="geometry" />
        </mxCell>
        <mxCell id="jziW0w5y_bbhbGW9cz96-52" value="1" style="text;html=1;strokeColor=none;fillColor=none;align=center;verticalAlign=middle;whiteSpace=wrap;rounded=0;" vertex="1" parent="1">
          <mxGeometry x="320" y="320" width="20" height="30" as="geometry" />
        </mxCell>
        <mxCell id="jziW0w5y_bbhbGW9cz96-53" value="1" style="text;html=1;strokeColor=none;fillColor=none;align=center;verticalAlign=middle;whiteSpace=wrap;rounded=0;" vertex="1" parent="1">
          <mxGeometry x="210" y="310" width="20" height="30" as="geometry" />
        </mxCell>
        <mxCell id="jziW0w5y_bbhbGW9cz96-54" value="1" style="text;html=1;strokeColor=none;fillColor=none;align=center;verticalAlign=middle;whiteSpace=wrap;rounded=0;" vertex="1" parent="1">
          <mxGeometry x="150" y="330" width="20" height="30" as="geometry" />
        </mxCell>
        <mxCell id="jziW0w5y_bbhbGW9cz96-55" value="1" style="text;html=1;strokeColor=none;fillColor=none;align=center;verticalAlign=middle;whiteSpace=wrap;rounded=0;" vertex="1" parent="1">
          <mxGeometry x="600" y="480" width="20" height="30" as="geometry" />
        </mxCell>
        <mxCell id="jziW0w5y_bbhbGW9cz96-56" value="1" style="text;html=1;strokeColor=none;fillColor=none;align=center;verticalAlign=middle;whiteSpace=wrap;rounded=0;fontColor=#000000;" vertex="1" parent="1">
          <mxGeometry x="530" y="460" width="20" height="30" as="geometry" />
        </mxCell>
        <mxCell id="jziW0w5y_bbhbGW9cz96-57" value="1" style="text;html=1;strokeColor=none;fillColor=none;align=center;verticalAlign=middle;whiteSpace=wrap;rounded=0;" vertex="1" parent="1">
          <mxGeometry x="480" y="450" width="20" height="30" as="geometry" />
        </mxCell>
        <mxCell id="jziW0w5y_bbhbGW9cz96-58" value="1" style="text;html=1;strokeColor=none;fillColor=none;align=center;verticalAlign=middle;whiteSpace=wrap;rounded=0;" vertex="1" parent="1">
          <mxGeometry x="410" y="440" width="20" height="30" as="geometry" />
        </mxCell>
        <mxCell id="jziW0w5y_bbhbGW9cz96-59" value="1" style="text;html=1;strokeColor=none;fillColor=none;align=center;verticalAlign=middle;whiteSpace=wrap;rounded=0;" vertex="1" parent="1">
          <mxGeometry x="340" y="440" width="20" height="30" as="geometry" />
        </mxCell>
        <mxCell id="jziW0w5y_bbhbGW9cz96-60" value="1" style="text;html=1;strokeColor=none;fillColor=none;align=center;verticalAlign=middle;whiteSpace=wrap;rounded=0;" vertex="1" parent="1">
          <mxGeometry x="300" y="460" width="20" height="30" as="geometry" />
        </mxCell>
      </root>
    </mxGraphModel>
  </diagram>
  <diagram id="oRVYF-pSlQlXWF2FIRtq" name="Page-4">
    <mxGraphModel dx="1422" dy="754" grid="1" gridSize="10" guides="1" tooltips="1" connect="1" arrows="1" fold="1" page="1" pageScale="1" pageWidth="827" pageHeight="1169" math="0" shadow="0">
      <root>
        <mxCell id="0" />
        <mxCell id="1" parent="0" />
        <mxCell id="XBME7vflKuXDVws7T79--1" value="" style="ellipse;whiteSpace=wrap;html=1;" vertex="1" parent="1">
          <mxGeometry x="260" y="260" width="60" height="60" as="geometry" />
        </mxCell>
        <mxCell id="XBME7vflKuXDVws7T79--2" value="" style="ellipse;whiteSpace=wrap;html=1;" vertex="1" parent="1">
          <mxGeometry x="150" y="260" width="60" height="60" as="geometry" />
        </mxCell>
        <mxCell id="XBME7vflKuXDVws7T79--3" value="" style="ellipse;whiteSpace=wrap;html=1;" vertex="1" parent="1">
          <mxGeometry x="260" y="370" width="60" height="60" as="geometry" />
        </mxCell>
        <mxCell id="XBME7vflKuXDVws7T79--4" value="" style="ellipse;whiteSpace=wrap;html=1;" vertex="1" parent="1">
          <mxGeometry x="150" y="370" width="60" height="60" as="geometry" />
        </mxCell>
        <mxCell id="XBME7vflKuXDVws7T79--5" value="" style="edgeStyle=orthogonalEdgeStyle;rounded=0;orthogonalLoop=1;jettySize=auto;html=1;fillColor=#ffe6cc;strokeColor=#d79b00;" edge="1" parent="1" source="XBME7vflKuXDVws7T79--6" target="XBME7vflKuXDVws7T79--8">
          <mxGeometry relative="1" as="geometry" />
        </mxCell>
        <mxCell id="XBME7vflKuXDVws7T79--6" value="" style="ellipse;whiteSpace=wrap;html=1;" vertex="1" parent="1">
          <mxGeometry x="470" y="260" width="60" height="60" as="geometry" />
        </mxCell>
        <mxCell id="XBME7vflKuXDVws7T79--7" value="" style="ellipse;whiteSpace=wrap;html=1;" vertex="1" parent="1">
          <mxGeometry x="360" y="260" width="60" height="60" as="geometry" />
        </mxCell>
        <mxCell id="XBME7vflKuXDVws7T79--8" value="" style="ellipse;whiteSpace=wrap;html=1;" vertex="1" parent="1">
          <mxGeometry x="470" y="370" width="60" height="60" as="geometry" />
        </mxCell>
        <mxCell id="XBME7vflKuXDVws7T79--9" value="" style="ellipse;whiteSpace=wrap;html=1;" vertex="1" parent="1">
          <mxGeometry x="360" y="370" width="60" height="60" as="geometry" />
        </mxCell>
        <mxCell id="XBME7vflKuXDVws7T79--10" value="" style="ellipse;whiteSpace=wrap;html=1;" vertex="1" parent="1">
          <mxGeometry x="670" y="260" width="60" height="60" as="geometry" />
        </mxCell>
        <mxCell id="XBME7vflKuXDVws7T79--11" value="" style="ellipse;whiteSpace=wrap;html=1;" vertex="1" parent="1">
          <mxGeometry x="560" y="260" width="60" height="60" as="geometry" />
        </mxCell>
        <mxCell id="XBME7vflKuXDVws7T79--12" value="" style="ellipse;whiteSpace=wrap;html=1;" vertex="1" parent="1">
          <mxGeometry x="670" y="370" width="60" height="60" as="geometry" />
        </mxCell>
        <mxCell id="XBME7vflKuXDVws7T79--13" value="" style="ellipse;whiteSpace=wrap;html=1;" vertex="1" parent="1">
          <mxGeometry x="560" y="370" width="60" height="60" as="geometry" />
        </mxCell>
        <mxCell id="XBME7vflKuXDVws7T79--14" value="S" style="ellipse;whiteSpace=wrap;html=1;" vertex="1" parent="1">
          <mxGeometry x="410" y="130" width="60" height="60" as="geometry" />
        </mxCell>
        <mxCell id="XBME7vflKuXDVws7T79--15" value="t" style="ellipse;whiteSpace=wrap;html=1;" vertex="1" parent="1">
          <mxGeometry x="410" y="500" width="60" height="60" as="geometry" />
        </mxCell>
        <mxCell id="XBME7vflKuXDVws7T79--16" value="" style="endArrow=classic;html=1;rounded=0;" edge="1" parent="1">
          <mxGeometry width="50" height="50" relative="1" as="geometry">
            <mxPoint x="420" y="200" as="sourcePoint" />
            <mxPoint x="400" y="250" as="targetPoint" />
            <Array as="points" />
          </mxGeometry>
        </mxCell>
        <mxCell id="XBME7vflKuXDVws7T79--17" value="" style="endArrow=classic;html=1;rounded=0;fillColor=#ffe6cc;strokeColor=#d79b00;" edge="1" parent="1">
          <mxGeometry width="50" height="50" relative="1" as="geometry">
            <mxPoint x="460" y="200" as="sourcePoint" />
            <mxPoint x="490" y="250" as="targetPoint" />
          </mxGeometry>
        </mxCell>
        <mxCell id="XBME7vflKuXDVws7T79--18" value="" style="endArrow=classic;html=1;rounded=0;fillColor=#ffe6cc;strokeColor=#000000;" edge="1" parent="1">
          <mxGeometry width="50" height="50" relative="1" as="geometry">
            <mxPoint x="550" y="250" as="sourcePoint" />
            <mxPoint x="480" y="190" as="targetPoint" />
          </mxGeometry>
        </mxCell>
        <mxCell id="XBME7vflKuXDVws7T79--19" value="" style="endArrow=classic;html=1;rounded=0;fillColor=#ffe6cc;strokeColor=#000000;" edge="1" parent="1">
          <mxGeometry width="50" height="50" relative="1" as="geometry">
            <mxPoint x="660" y="280" as="sourcePoint" />
            <mxPoint x="480" y="170" as="targetPoint" />
          </mxGeometry>
        </mxCell>
        <mxCell id="XBME7vflKuXDVws7T79--20" value="" style="endArrow=classic;html=1;rounded=0;" edge="1" parent="1">
          <mxGeometry width="50" height="50" relative="1" as="geometry">
            <mxPoint x="400" y="180" as="sourcePoint" />
            <mxPoint x="320" y="250" as="targetPoint" />
          </mxGeometry>
        </mxCell>
        <mxCell id="XBME7vflKuXDVws7T79--21" value="" style="endArrow=classic;html=1;rounded=0;" edge="1" parent="1">
          <mxGeometry width="50" height="50" relative="1" as="geometry">
            <mxPoint x="390" y="160" as="sourcePoint" />
            <mxPoint x="210" y="260" as="targetPoint" />
          </mxGeometry>
        </mxCell>
        <mxCell id="XBME7vflKuXDVws7T79--22" value="" style="endArrow=classic;html=1;rounded=0;" edge="1" parent="1">
          <mxGeometry width="50" height="50" relative="1" as="geometry">
            <mxPoint x="680" y="440" as="sourcePoint" />
            <mxPoint x="480" y="520" as="targetPoint" />
          </mxGeometry>
        </mxCell>
        <mxCell id="XBME7vflKuXDVws7T79--23" value="" style="endArrow=classic;html=1;rounded=0;fillColor=#ffe6cc;strokeColor=#000000;" edge="1" parent="1">
          <mxGeometry width="50" height="50" relative="1" as="geometry">
            <mxPoint x="480" y="500" as="sourcePoint" />
            <mxPoint x="560" y="430" as="targetPoint" />
            <Array as="points" />
          </mxGeometry>
        </mxCell>
        <mxCell id="XBME7vflKuXDVws7T79--24" value="" style="endArrow=classic;html=1;rounded=0;fillColor=#ffe6cc;strokeColor=#d79b00;" edge="1" parent="1">
          <mxGeometry width="50" height="50" relative="1" as="geometry">
            <mxPoint x="490" y="440" as="sourcePoint" />
            <mxPoint x="460" y="490" as="targetPoint" />
          </mxGeometry>
        </mxCell>
        <mxCell id="XBME7vflKuXDVws7T79--25" value="" style="endArrow=classic;html=1;rounded=0;fillColor=#ffe6cc;strokeColor=#000000;entryX=0.5;entryY=1;entryDx=0;entryDy=0;" edge="1" parent="1" target="XBME7vflKuXDVws7T79--9">
          <mxGeometry width="50" height="50" relative="1" as="geometry">
            <mxPoint x="420" y="500" as="sourcePoint" />
            <mxPoint x="400" y="440" as="targetPoint" />
          </mxGeometry>
        </mxCell>
        <mxCell id="XBME7vflKuXDVws7T79--26" value="" style="endArrow=classic;html=1;rounded=0;" edge="1" parent="1">
          <mxGeometry width="50" height="50" relative="1" as="geometry">
            <mxPoint x="300" y="440" as="sourcePoint" />
            <mxPoint x="390" y="510" as="targetPoint" />
          </mxGeometry>
        </mxCell>
        <mxCell id="XBME7vflKuXDVws7T79--27" value="" style="endArrow=classic;html=1;rounded=0;" edge="1" parent="1">
          <mxGeometry width="50" height="50" relative="1" as="geometry">
            <mxPoint x="210" y="440" as="sourcePoint" />
            <mxPoint x="380" y="530" as="targetPoint" />
          </mxGeometry>
        </mxCell>
        <mxCell id="XBME7vflKuXDVws7T79--28" value="" style="endArrow=classic;html=1;rounded=0;entryX=0.5;entryY=0;entryDx=0;entryDy=0;exitX=0.5;exitY=1;exitDx=0;exitDy=0;exitPerimeter=0;" edge="1" parent="1" source="XBME7vflKuXDVws7T79--2" target="XBME7vflKuXDVws7T79--4">
          <mxGeometry width="50" height="50" relative="1" as="geometry">
            <mxPoint x="180" y="330" as="sourcePoint" />
            <mxPoint x="440" y="360" as="targetPoint" />
          </mxGeometry>
        </mxCell>
        <mxCell id="XBME7vflKuXDVws7T79--29" value="" style="endArrow=classic;html=1;rounded=0;entryX=0.5;entryY=0;entryDx=0;entryDy=0;exitX=0.5;exitY=1;exitDx=0;exitDy=0;exitPerimeter=0;" edge="1" parent="1">
          <mxGeometry width="50" height="50" relative="1" as="geometry">
            <mxPoint x="289.5" y="320" as="sourcePoint" />
            <mxPoint x="289.5" y="370" as="targetPoint" />
          </mxGeometry>
        </mxCell>
        <mxCell id="XBME7vflKuXDVws7T79--30" value="" style="endArrow=classic;html=1;rounded=0;entryX=0.5;entryY=0;entryDx=0;entryDy=0;exitX=0.5;exitY=1;exitDx=0;exitDy=0;exitPerimeter=0;fillColor=#ffe6cc;strokeColor=#d79b00;" edge="1" parent="1">
          <mxGeometry width="50" height="50" relative="1" as="geometry">
            <mxPoint x="499.5" y="320" as="sourcePoint" />
            <mxPoint x="499.5" y="370" as="targetPoint" />
          </mxGeometry>
        </mxCell>
        <mxCell id="XBME7vflKuXDVws7T79--31" value="" style="endArrow=classic;html=1;rounded=0;entryX=0.5;entryY=0;entryDx=0;entryDy=0;exitX=0.5;exitY=1;exitDx=0;exitDy=0;exitPerimeter=0;fillColor=#ffe6cc;strokeColor=#000000;" edge="1" parent="1">
          <mxGeometry width="50" height="50" relative="1" as="geometry">
            <mxPoint x="589.5" y="320" as="sourcePoint" />
            <mxPoint x="589.5" y="370" as="targetPoint" />
          </mxGeometry>
        </mxCell>
        <mxCell id="XBME7vflKuXDVws7T79--32" value="" style="endArrow=classic;html=1;rounded=0;entryX=0.783;entryY=0.05;entryDx=0;entryDy=0;exitX=0;exitY=1;exitDx=0;exitDy=0;entryPerimeter=0;" edge="1" parent="1" source="XBME7vflKuXDVws7T79--1" target="XBME7vflKuXDVws7T79--4">
          <mxGeometry width="50" height="50" relative="1" as="geometry">
            <mxPoint x="230" y="320" as="sourcePoint" />
            <mxPoint x="230" y="370" as="targetPoint" />
          </mxGeometry>
        </mxCell>
        <mxCell id="XBME7vflKuXDVws7T79--33" value="" style="endArrow=classic;html=1;rounded=0;exitX=0;exitY=0.667;exitDx=0;exitDy=0;exitPerimeter=0;" edge="1" parent="1" source="XBME7vflKuXDVws7T79--7" target="XBME7vflKuXDVws7T79--4">
          <mxGeometry width="50" height="50" relative="1" as="geometry">
            <mxPoint x="330" y="320" as="sourcePoint" />
            <mxPoint x="330" y="370" as="targetPoint" />
          </mxGeometry>
        </mxCell>
        <mxCell id="XBME7vflKuXDVws7T79--34" value="" style="endArrow=classic;html=1;rounded=0;entryX=0.5;entryY=0;entryDx=0;entryDy=0;exitX=0.5;exitY=1;exitDx=0;exitDy=0;exitPerimeter=0;" edge="1" parent="1">
          <mxGeometry width="50" height="50" relative="1" as="geometry">
            <mxPoint x="390" y="320" as="sourcePoint" />
            <mxPoint x="390" y="370" as="targetPoint" />
          </mxGeometry>
        </mxCell>
        <mxCell id="XBME7vflKuXDVws7T79--35" value="" style="endArrow=classic;html=1;rounded=0;entryX=0;entryY=0;entryDx=0;entryDy=0;exitX=1;exitY=1;exitDx=0;exitDy=0;" edge="1" parent="1" source="XBME7vflKuXDVws7T79--7" target="XBME7vflKuXDVws7T79--12">
          <mxGeometry width="50" height="50" relative="1" as="geometry">
            <mxPoint x="419" y="310" as="sourcePoint" />
            <mxPoint x="419" y="360" as="targetPoint" />
          </mxGeometry>
        </mxCell>
        <mxCell id="XBME7vflKuXDVws7T79--36" value="" style="endArrow=classic;html=1;rounded=0;exitX=0;exitY=1;exitDx=0;exitDy=0;" edge="1" parent="1" source="XBME7vflKuXDVws7T79--6" target="XBME7vflKuXDVws7T79--9">
          <mxGeometry width="50" height="50" relative="1" as="geometry">
            <mxPoint x="509.5" y="330" as="sourcePoint" />
            <mxPoint x="509.5" y="380" as="targetPoint" />
          </mxGeometry>
        </mxCell>
        <mxCell id="XBME7vflKuXDVws7T79--37" value="" style="endArrow=classic;html=1;rounded=0;exitX=1.033;exitY=0.35;exitDx=0;exitDy=0;exitPerimeter=0;fillColor=#ffe6cc;strokeColor=#000000;entryX=0;entryY=1;entryDx=0;entryDy=0;" edge="1" parent="1" source="XBME7vflKuXDVws7T79--9" target="XBME7vflKuXDVws7T79--11">
          <mxGeometry width="50" height="50" relative="1" as="geometry">
            <mxPoint x="519.5" y="340" as="sourcePoint" />
            <mxPoint x="450" y="420" as="targetPoint" />
          </mxGeometry>
        </mxCell>
        <mxCell id="XBME7vflKuXDVws7T79--38" value="" style="endArrow=classic;html=1;rounded=0;entryX=0.25;entryY=0.967;entryDx=0;entryDy=0;fillColor=#ffe6cc;strokeColor=#000000;fontColor=#000000;entryPerimeter=0;exitX=1;exitY=0;exitDx=0;exitDy=0;" edge="1" parent="1" source="XBME7vflKuXDVws7T79--13" target="XBME7vflKuXDVws7T79--10">
          <mxGeometry width="50" height="50" relative="1" as="geometry">
            <mxPoint x="630" y="379" as="sourcePoint" />
            <mxPoint x="529.5" y="400" as="targetPoint" />
          </mxGeometry>
        </mxCell>
        <mxCell id="XBME7vflKuXDVws7T79--39" value="1" style="text;html=1;strokeColor=none;fillColor=none;align=center;verticalAlign=middle;whiteSpace=wrap;rounded=0;" vertex="1" parent="1">
          <mxGeometry x="270" y="170" width="20" height="30" as="geometry" />
        </mxCell>
        <mxCell id="XBME7vflKuXDVws7T79--40" value="1" style="text;html=1;strokeColor=none;fillColor=none;align=center;verticalAlign=middle;whiteSpace=wrap;rounded=0;" vertex="1" parent="1">
          <mxGeometry x="320" y="200" width="20" height="30" as="geometry" />
        </mxCell>
        <mxCell id="XBME7vflKuXDVws7T79--41" value="1" style="text;html=1;strokeColor=none;fillColor=none;align=center;verticalAlign=middle;whiteSpace=wrap;rounded=0;" vertex="1" parent="1">
          <mxGeometry x="380" y="210" width="20" height="30" as="geometry" />
        </mxCell>
        <mxCell id="XBME7vflKuXDVws7T79--42" value="1" style="text;html=1;strokeColor=none;fillColor=none;align=center;verticalAlign=middle;whiteSpace=wrap;rounded=0;" vertex="1" parent="1">
          <mxGeometry x="450" y="210" width="20" height="30" as="geometry" />
        </mxCell>
        <mxCell id="XBME7vflKuXDVws7T79--43" value="1" style="text;html=1;strokeColor=none;fillColor=none;align=center;verticalAlign=middle;whiteSpace=wrap;rounded=0;" vertex="1" parent="1">
          <mxGeometry x="500" y="220" width="20" height="30" as="geometry" />
        </mxCell>
        <mxCell id="XBME7vflKuXDVws7T79--44" value="1" style="text;html=1;strokeColor=none;fillColor=none;align=center;verticalAlign=middle;whiteSpace=wrap;rounded=0;fontColor=#000000;" vertex="1" parent="1">
          <mxGeometry x="570" y="170" width="20" height="30" as="geometry" />
        </mxCell>
        <mxCell id="XBME7vflKuXDVws7T79--45" value="1" style="text;html=1;align=center;verticalAlign=middle;whiteSpace=wrap;rounded=0;fontColor=#000000;" vertex="1" parent="1">
          <mxGeometry x="640" y="310" width="20" height="30" as="geometry" />
        </mxCell>
        <mxCell id="XBME7vflKuXDVws7T79--46" value="1" style="text;html=1;strokeColor=none;fillColor=none;align=center;verticalAlign=middle;whiteSpace=wrap;rounded=0;" vertex="1" parent="1">
          <mxGeometry x="590" y="320" width="20" height="30" as="geometry" />
        </mxCell>
        <mxCell id="XBME7vflKuXDVws7T79--47" value="1" style="text;html=1;strokeColor=none;fillColor=none;align=center;verticalAlign=middle;whiteSpace=wrap;rounded=0;" vertex="1" parent="1">
          <mxGeometry x="530" y="300" width="20" height="30" as="geometry" />
        </mxCell>
        <mxCell id="XBME7vflKuXDVws7T79--48" value="1" style="text;html=1;strokeColor=none;fillColor=none;align=center;verticalAlign=middle;whiteSpace=wrap;rounded=0;" vertex="1" parent="1">
          <mxGeometry x="480" y="330" width="20" height="30" as="geometry" />
        </mxCell>
        <mxCell id="XBME7vflKuXDVws7T79--49" value="1" style="text;html=1;strokeColor=none;fillColor=none;align=center;verticalAlign=middle;whiteSpace=wrap;rounded=0;" vertex="1" parent="1">
          <mxGeometry x="560" y="320" width="20" height="30" as="geometry" />
        </mxCell>
        <mxCell id="XBME7vflKuXDVws7T79--50" value="1" style="text;html=1;strokeColor=none;fillColor=none;align=center;verticalAlign=middle;whiteSpace=wrap;rounded=0;" vertex="1" parent="1">
          <mxGeometry x="390" y="330" width="20" height="30" as="geometry" />
        </mxCell>
        <mxCell id="XBME7vflKuXDVws7T79--51" value="1" style="text;html=1;strokeColor=none;fillColor=none;align=center;verticalAlign=middle;whiteSpace=wrap;rounded=0;" vertex="1" parent="1">
          <mxGeometry x="290" y="330" width="20" height="30" as="geometry" />
        </mxCell>
        <mxCell id="XBME7vflKuXDVws7T79--52" value="1" style="text;html=1;strokeColor=none;fillColor=none;align=center;verticalAlign=middle;whiteSpace=wrap;rounded=0;" vertex="1" parent="1">
          <mxGeometry x="320" y="320" width="20" height="30" as="geometry" />
        </mxCell>
        <mxCell id="XBME7vflKuXDVws7T79--53" value="1" style="text;html=1;strokeColor=none;fillColor=none;align=center;verticalAlign=middle;whiteSpace=wrap;rounded=0;" vertex="1" parent="1">
          <mxGeometry x="210" y="310" width="20" height="30" as="geometry" />
        </mxCell>
        <mxCell id="XBME7vflKuXDVws7T79--54" value="1" style="text;html=1;strokeColor=none;fillColor=none;align=center;verticalAlign=middle;whiteSpace=wrap;rounded=0;" vertex="1" parent="1">
          <mxGeometry x="150" y="330" width="20" height="30" as="geometry" />
        </mxCell>
        <mxCell id="XBME7vflKuXDVws7T79--55" value="1" style="text;html=1;strokeColor=none;fillColor=none;align=center;verticalAlign=middle;whiteSpace=wrap;rounded=0;" vertex="1" parent="1">
          <mxGeometry x="600" y="480" width="20" height="30" as="geometry" />
        </mxCell>
        <mxCell id="XBME7vflKuXDVws7T79--56" value="1" style="text;html=1;strokeColor=none;fillColor=none;align=center;verticalAlign=middle;whiteSpace=wrap;rounded=0;fontColor=#000000;" vertex="1" parent="1">
          <mxGeometry x="530" y="460" width="20" height="30" as="geometry" />
        </mxCell>
        <mxCell id="XBME7vflKuXDVws7T79--57" value="1" style="text;html=1;strokeColor=none;fillColor=none;align=center;verticalAlign=middle;whiteSpace=wrap;rounded=0;" vertex="1" parent="1">
          <mxGeometry x="480" y="450" width="20" height="30" as="geometry" />
        </mxCell>
        <mxCell id="XBME7vflKuXDVws7T79--58" value="1" style="text;html=1;strokeColor=none;fillColor=none;align=center;verticalAlign=middle;whiteSpace=wrap;rounded=0;" vertex="1" parent="1">
          <mxGeometry x="410" y="440" width="20" height="30" as="geometry" />
        </mxCell>
        <mxCell id="XBME7vflKuXDVws7T79--59" value="1" style="text;html=1;strokeColor=none;fillColor=none;align=center;verticalAlign=middle;whiteSpace=wrap;rounded=0;" vertex="1" parent="1">
          <mxGeometry x="340" y="440" width="20" height="30" as="geometry" />
        </mxCell>
        <mxCell id="XBME7vflKuXDVws7T79--60" value="1" style="text;html=1;strokeColor=none;fillColor=none;align=center;verticalAlign=middle;whiteSpace=wrap;rounded=0;" vertex="1" parent="1">
          <mxGeometry x="300" y="460" width="20" height="30" as="geometry" />
        </mxCell>
      </root>
    </mxGraphModel>
  </diagram>
  <diagram id="y8yxXGmrPUiPliJbOHYM" name="Page-5">
    <mxGraphModel dx="1422" dy="754" grid="1" gridSize="10" guides="1" tooltips="1" connect="1" arrows="1" fold="1" page="1" pageScale="1" pageWidth="827" pageHeight="1169" math="0" shadow="0">
      <root>
        <mxCell id="0" />
        <mxCell id="1" parent="0" />
        <mxCell id="qlhWGT8GeB3_BYejZq6_-1" value="" style="ellipse;whiteSpace=wrap;html=1;" vertex="1" parent="1">
          <mxGeometry x="260" y="260" width="60" height="60" as="geometry" />
        </mxCell>
        <mxCell id="qlhWGT8GeB3_BYejZq6_-2" value="" style="ellipse;whiteSpace=wrap;html=1;" vertex="1" parent="1">
          <mxGeometry x="150" y="260" width="60" height="60" as="geometry" />
        </mxCell>
        <mxCell id="qlhWGT8GeB3_BYejZq6_-3" value="" style="ellipse;whiteSpace=wrap;html=1;" vertex="1" parent="1">
          <mxGeometry x="260" y="370" width="60" height="60" as="geometry" />
        </mxCell>
        <mxCell id="qlhWGT8GeB3_BYejZq6_-4" value="" style="ellipse;whiteSpace=wrap;html=1;" vertex="1" parent="1">
          <mxGeometry x="150" y="370" width="60" height="60" as="geometry" />
        </mxCell>
        <mxCell id="qlhWGT8GeB3_BYejZq6_-6" value="" style="ellipse;whiteSpace=wrap;html=1;" vertex="1" parent="1">
          <mxGeometry x="470" y="260" width="60" height="60" as="geometry" />
        </mxCell>
        <mxCell id="qlhWGT8GeB3_BYejZq6_-7" value="" style="ellipse;whiteSpace=wrap;html=1;" vertex="1" parent="1">
          <mxGeometry x="360" y="260" width="60" height="60" as="geometry" />
        </mxCell>
        <mxCell id="qlhWGT8GeB3_BYejZq6_-8" value="" style="ellipse;whiteSpace=wrap;html=1;" vertex="1" parent="1">
          <mxGeometry x="470" y="370" width="60" height="60" as="geometry" />
        </mxCell>
        <mxCell id="qlhWGT8GeB3_BYejZq6_-9" value="" style="ellipse;whiteSpace=wrap;html=1;" vertex="1" parent="1">
          <mxGeometry x="360" y="370" width="60" height="60" as="geometry" />
        </mxCell>
        <mxCell id="qlhWGT8GeB3_BYejZq6_-10" value="" style="ellipse;whiteSpace=wrap;html=1;" vertex="1" parent="1">
          <mxGeometry x="670" y="260" width="60" height="60" as="geometry" />
        </mxCell>
        <mxCell id="qlhWGT8GeB3_BYejZq6_-11" value="" style="ellipse;whiteSpace=wrap;html=1;" vertex="1" parent="1">
          <mxGeometry x="560" y="260" width="60" height="60" as="geometry" />
        </mxCell>
        <mxCell id="qlhWGT8GeB3_BYejZq6_-12" value="" style="ellipse;whiteSpace=wrap;html=1;" vertex="1" parent="1">
          <mxGeometry x="670" y="370" width="60" height="60" as="geometry" />
        </mxCell>
        <mxCell id="qlhWGT8GeB3_BYejZq6_-13" value="" style="ellipse;whiteSpace=wrap;html=1;" vertex="1" parent="1">
          <mxGeometry x="560" y="370" width="60" height="60" as="geometry" />
        </mxCell>
        <mxCell id="qlhWGT8GeB3_BYejZq6_-14" value="S" style="ellipse;whiteSpace=wrap;html=1;" vertex="1" parent="1">
          <mxGeometry x="410" y="130" width="60" height="60" as="geometry" />
        </mxCell>
        <mxCell id="qlhWGT8GeB3_BYejZq6_-15" value="t" style="ellipse;whiteSpace=wrap;html=1;" vertex="1" parent="1">
          <mxGeometry x="410" y="500" width="60" height="60" as="geometry" />
        </mxCell>
        <mxCell id="qlhWGT8GeB3_BYejZq6_-16" value="" style="endArrow=classic;html=1;rounded=0;fillColor=#ffe6cc;strokeColor=#d79b00;" edge="1" parent="1">
          <mxGeometry width="50" height="50" relative="1" as="geometry">
            <mxPoint x="420" y="200" as="sourcePoint" />
            <mxPoint x="400" y="250" as="targetPoint" />
            <Array as="points" />
          </mxGeometry>
        </mxCell>
        <mxCell id="qlhWGT8GeB3_BYejZq6_-17" value="" style="endArrow=classic;html=1;rounded=0;" edge="1" parent="1">
          <mxGeometry width="50" height="50" relative="1" as="geometry">
            <mxPoint x="490" y="250" as="sourcePoint" />
            <mxPoint x="460" y="200" as="targetPoint" />
          </mxGeometry>
        </mxCell>
        <mxCell id="qlhWGT8GeB3_BYejZq6_-18" value="" style="endArrow=classic;html=1;rounded=0;fillColor=#ffe6cc;strokeColor=#000000;" edge="1" parent="1">
          <mxGeometry width="50" height="50" relative="1" as="geometry">
            <mxPoint x="550" y="250" as="sourcePoint" />
            <mxPoint x="480" y="190" as="targetPoint" />
          </mxGeometry>
        </mxCell>
        <mxCell id="qlhWGT8GeB3_BYejZq6_-19" value="" style="endArrow=classic;html=1;rounded=0;fillColor=#ffe6cc;strokeColor=#000000;" edge="1" parent="1">
          <mxGeometry width="50" height="50" relative="1" as="geometry">
            <mxPoint x="660" y="280" as="sourcePoint" />
            <mxPoint x="480" y="170" as="targetPoint" />
          </mxGeometry>
        </mxCell>
        <mxCell id="qlhWGT8GeB3_BYejZq6_-20" value="" style="endArrow=classic;html=1;rounded=0;" edge="1" parent="1">
          <mxGeometry width="50" height="50" relative="1" as="geometry">
            <mxPoint x="400" y="180" as="sourcePoint" />
            <mxPoint x="320" y="250" as="targetPoint" />
          </mxGeometry>
        </mxCell>
        <mxCell id="qlhWGT8GeB3_BYejZq6_-21" value="" style="endArrow=classic;html=1;rounded=0;" edge="1" parent="1">
          <mxGeometry width="50" height="50" relative="1" as="geometry">
            <mxPoint x="390" y="160" as="sourcePoint" />
            <mxPoint x="210" y="260" as="targetPoint" />
          </mxGeometry>
        </mxCell>
        <mxCell id="qlhWGT8GeB3_BYejZq6_-22" value="" style="endArrow=classic;html=1;rounded=0;fillColor=#ffe6cc;strokeColor=#d79b00;" edge="1" parent="1">
          <mxGeometry width="50" height="50" relative="1" as="geometry">
            <mxPoint x="680" y="440" as="sourcePoint" />
            <mxPoint x="480" y="520" as="targetPoint" />
          </mxGeometry>
        </mxCell>
        <mxCell id="qlhWGT8GeB3_BYejZq6_-23" value="" style="endArrow=classic;html=1;rounded=0;fillColor=#ffe6cc;strokeColor=#000000;" edge="1" parent="1">
          <mxGeometry width="50" height="50" relative="1" as="geometry">
            <mxPoint x="480" y="500" as="sourcePoint" />
            <mxPoint x="560" y="430" as="targetPoint" />
            <Array as="points" />
          </mxGeometry>
        </mxCell>
        <mxCell id="qlhWGT8GeB3_BYejZq6_-24" value="" style="endArrow=classic;html=1;rounded=0;" edge="1" parent="1">
          <mxGeometry width="50" height="50" relative="1" as="geometry">
            <mxPoint x="460" y="490" as="sourcePoint" />
            <mxPoint x="480" y="440" as="targetPoint" />
          </mxGeometry>
        </mxCell>
        <mxCell id="qlhWGT8GeB3_BYejZq6_-25" value="" style="endArrow=classic;html=1;rounded=0;fillColor=#ffe6cc;strokeColor=#000000;entryX=0.5;entryY=1;entryDx=0;entryDy=0;" edge="1" parent="1" target="qlhWGT8GeB3_BYejZq6_-9">
          <mxGeometry width="50" height="50" relative="1" as="geometry">
            <mxPoint x="420" y="500" as="sourcePoint" />
            <mxPoint x="400" y="440" as="targetPoint" />
          </mxGeometry>
        </mxCell>
        <mxCell id="qlhWGT8GeB3_BYejZq6_-26" value="" style="endArrow=classic;html=1;rounded=0;" edge="1" parent="1">
          <mxGeometry width="50" height="50" relative="1" as="geometry">
            <mxPoint x="300" y="440" as="sourcePoint" />
            <mxPoint x="390" y="510" as="targetPoint" />
          </mxGeometry>
        </mxCell>
        <mxCell id="qlhWGT8GeB3_BYejZq6_-27" value="" style="endArrow=classic;html=1;rounded=0;" edge="1" parent="1">
          <mxGeometry width="50" height="50" relative="1" as="geometry">
            <mxPoint x="210" y="440" as="sourcePoint" />
            <mxPoint x="380" y="530" as="targetPoint" />
          </mxGeometry>
        </mxCell>
        <mxCell id="qlhWGT8GeB3_BYejZq6_-28" value="" style="endArrow=classic;html=1;rounded=0;entryX=0.5;entryY=0;entryDx=0;entryDy=0;exitX=0.5;exitY=1;exitDx=0;exitDy=0;exitPerimeter=0;" edge="1" parent="1" source="qlhWGT8GeB3_BYejZq6_-2" target="qlhWGT8GeB3_BYejZq6_-4">
          <mxGeometry width="50" height="50" relative="1" as="geometry">
            <mxPoint x="180" y="330" as="sourcePoint" />
            <mxPoint x="440" y="360" as="targetPoint" />
          </mxGeometry>
        </mxCell>
        <mxCell id="qlhWGT8GeB3_BYejZq6_-29" value="" style="endArrow=classic;html=1;rounded=0;entryX=0.5;entryY=0;entryDx=0;entryDy=0;exitX=0.5;exitY=1;exitDx=0;exitDy=0;exitPerimeter=0;" edge="1" parent="1">
          <mxGeometry width="50" height="50" relative="1" as="geometry">
            <mxPoint x="289.5" y="320" as="sourcePoint" />
            <mxPoint x="289.5" y="370" as="targetPoint" />
          </mxGeometry>
        </mxCell>
        <mxCell id="qlhWGT8GeB3_BYejZq6_-30" value="" style="endArrow=classic;html=1;rounded=0;exitX=0.5;exitY=0;exitDx=0;exitDy=0;" edge="1" parent="1" source="qlhWGT8GeB3_BYejZq6_-8">
          <mxGeometry width="50" height="50" relative="1" as="geometry">
            <mxPoint x="530" y="360" as="sourcePoint" />
            <mxPoint x="500" y="320" as="targetPoint" />
          </mxGeometry>
        </mxCell>
        <mxCell id="qlhWGT8GeB3_BYejZq6_-31" value="" style="endArrow=classic;html=1;rounded=0;entryX=0.5;entryY=0;entryDx=0;entryDy=0;exitX=0.5;exitY=1;exitDx=0;exitDy=0;exitPerimeter=0;fillColor=#ffe6cc;strokeColor=#000000;" edge="1" parent="1">
          <mxGeometry width="50" height="50" relative="1" as="geometry">
            <mxPoint x="589.5" y="320" as="sourcePoint" />
            <mxPoint x="589.5" y="370" as="targetPoint" />
          </mxGeometry>
        </mxCell>
        <mxCell id="qlhWGT8GeB3_BYejZq6_-32" value="" style="endArrow=classic;html=1;rounded=0;entryX=0.783;entryY=0.05;entryDx=0;entryDy=0;exitX=0;exitY=1;exitDx=0;exitDy=0;entryPerimeter=0;" edge="1" parent="1" source="qlhWGT8GeB3_BYejZq6_-1" target="qlhWGT8GeB3_BYejZq6_-4">
          <mxGeometry width="50" height="50" relative="1" as="geometry">
            <mxPoint x="230" y="320" as="sourcePoint" />
            <mxPoint x="230" y="370" as="targetPoint" />
          </mxGeometry>
        </mxCell>
        <mxCell id="qlhWGT8GeB3_BYejZq6_-33" value="" style="endArrow=classic;html=1;rounded=0;exitX=0;exitY=0.667;exitDx=0;exitDy=0;exitPerimeter=0;" edge="1" parent="1" source="qlhWGT8GeB3_BYejZq6_-7" target="qlhWGT8GeB3_BYejZq6_-4">
          <mxGeometry width="50" height="50" relative="1" as="geometry">
            <mxPoint x="330" y="320" as="sourcePoint" />
            <mxPoint x="330" y="370" as="targetPoint" />
          </mxGeometry>
        </mxCell>
        <mxCell id="qlhWGT8GeB3_BYejZq6_-34" value="" style="endArrow=classic;html=1;rounded=0;entryX=0.5;entryY=0;entryDx=0;entryDy=0;exitX=0.5;exitY=1;exitDx=0;exitDy=0;exitPerimeter=0;" edge="1" parent="1">
          <mxGeometry width="50" height="50" relative="1" as="geometry">
            <mxPoint x="390" y="320" as="sourcePoint" />
            <mxPoint x="390" y="370" as="targetPoint" />
          </mxGeometry>
        </mxCell>
        <mxCell id="qlhWGT8GeB3_BYejZq6_-35" value="" style="endArrow=classic;html=1;rounded=0;entryX=0;entryY=0;entryDx=0;entryDy=0;exitX=1;exitY=1;exitDx=0;exitDy=0;fillColor=#ffe6cc;strokeColor=#d79b00;" edge="1" parent="1" source="qlhWGT8GeB3_BYejZq6_-7" target="qlhWGT8GeB3_BYejZq6_-12">
          <mxGeometry width="50" height="50" relative="1" as="geometry">
            <mxPoint x="419" y="310" as="sourcePoint" />
            <mxPoint x="419" y="360" as="targetPoint" />
          </mxGeometry>
        </mxCell>
        <mxCell id="qlhWGT8GeB3_BYejZq6_-36" value="" style="endArrow=classic;html=1;rounded=0;exitX=0;exitY=1;exitDx=0;exitDy=0;" edge="1" parent="1" source="qlhWGT8GeB3_BYejZq6_-6" target="qlhWGT8GeB3_BYejZq6_-9">
          <mxGeometry width="50" height="50" relative="1" as="geometry">
            <mxPoint x="509.5" y="330" as="sourcePoint" />
            <mxPoint x="509.5" y="380" as="targetPoint" />
          </mxGeometry>
        </mxCell>
        <mxCell id="qlhWGT8GeB3_BYejZq6_-37" value="" style="endArrow=classic;html=1;rounded=0;exitX=1.033;exitY=0.35;exitDx=0;exitDy=0;exitPerimeter=0;fillColor=#ffe6cc;strokeColor=#000000;entryX=0;entryY=1;entryDx=0;entryDy=0;" edge="1" parent="1" source="qlhWGT8GeB3_BYejZq6_-9" target="qlhWGT8GeB3_BYejZq6_-11">
          <mxGeometry width="50" height="50" relative="1" as="geometry">
            <mxPoint x="519.5" y="340" as="sourcePoint" />
            <mxPoint x="450" y="420" as="targetPoint" />
          </mxGeometry>
        </mxCell>
        <mxCell id="qlhWGT8GeB3_BYejZq6_-38" value="" style="endArrow=classic;html=1;rounded=0;entryX=0.25;entryY=0.967;entryDx=0;entryDy=0;fillColor=#ffe6cc;strokeColor=#000000;fontColor=#000000;entryPerimeter=0;exitX=1;exitY=0;exitDx=0;exitDy=0;" edge="1" parent="1" source="qlhWGT8GeB3_BYejZq6_-13" target="qlhWGT8GeB3_BYejZq6_-10">
          <mxGeometry width="50" height="50" relative="1" as="geometry">
            <mxPoint x="630" y="379" as="sourcePoint" />
            <mxPoint x="529.5" y="400" as="targetPoint" />
          </mxGeometry>
        </mxCell>
        <mxCell id="qlhWGT8GeB3_BYejZq6_-39" value="1" style="text;html=1;strokeColor=none;fillColor=none;align=center;verticalAlign=middle;whiteSpace=wrap;rounded=0;" vertex="1" parent="1">
          <mxGeometry x="270" y="170" width="20" height="30" as="geometry" />
        </mxCell>
        <mxCell id="qlhWGT8GeB3_BYejZq6_-40" value="1" style="text;html=1;strokeColor=none;fillColor=none;align=center;verticalAlign=middle;whiteSpace=wrap;rounded=0;" vertex="1" parent="1">
          <mxGeometry x="320" y="200" width="20" height="30" as="geometry" />
        </mxCell>
        <mxCell id="qlhWGT8GeB3_BYejZq6_-41" value="1" style="text;html=1;strokeColor=none;fillColor=none;align=center;verticalAlign=middle;whiteSpace=wrap;rounded=0;" vertex="1" parent="1">
          <mxGeometry x="380" y="210" width="20" height="30" as="geometry" />
        </mxCell>
        <mxCell id="qlhWGT8GeB3_BYejZq6_-42" value="1" style="text;html=1;strokeColor=none;fillColor=none;align=center;verticalAlign=middle;whiteSpace=wrap;rounded=0;" vertex="1" parent="1">
          <mxGeometry x="450" y="210" width="20" height="30" as="geometry" />
        </mxCell>
        <mxCell id="qlhWGT8GeB3_BYejZq6_-43" value="1" style="text;html=1;strokeColor=none;fillColor=none;align=center;verticalAlign=middle;whiteSpace=wrap;rounded=0;" vertex="1" parent="1">
          <mxGeometry x="500" y="220" width="20" height="30" as="geometry" />
        </mxCell>
        <mxCell id="qlhWGT8GeB3_BYejZq6_-44" value="1" style="text;html=1;strokeColor=none;fillColor=none;align=center;verticalAlign=middle;whiteSpace=wrap;rounded=0;fontColor=#000000;" vertex="1" parent="1">
          <mxGeometry x="570" y="170" width="20" height="30" as="geometry" />
        </mxCell>
        <mxCell id="qlhWGT8GeB3_BYejZq6_-45" value="1" style="text;html=1;align=center;verticalAlign=middle;whiteSpace=wrap;rounded=0;fontColor=#000000;" vertex="1" parent="1">
          <mxGeometry x="640" y="310" width="20" height="30" as="geometry" />
        </mxCell>
        <mxCell id="qlhWGT8GeB3_BYejZq6_-46" value="1" style="text;html=1;strokeColor=none;fillColor=none;align=center;verticalAlign=middle;whiteSpace=wrap;rounded=0;" vertex="1" parent="1">
          <mxGeometry x="590" y="320" width="20" height="30" as="geometry" />
        </mxCell>
        <mxCell id="qlhWGT8GeB3_BYejZq6_-47" value="1" style="text;html=1;strokeColor=none;fillColor=none;align=center;verticalAlign=middle;whiteSpace=wrap;rounded=0;" vertex="1" parent="1">
          <mxGeometry x="530" y="300" width="20" height="30" as="geometry" />
        </mxCell>
        <mxCell id="qlhWGT8GeB3_BYejZq6_-48" value="1" style="text;html=1;strokeColor=none;fillColor=none;align=center;verticalAlign=middle;whiteSpace=wrap;rounded=0;" vertex="1" parent="1">
          <mxGeometry x="480" y="330" width="20" height="30" as="geometry" />
        </mxCell>
        <mxCell id="qlhWGT8GeB3_BYejZq6_-49" value="1" style="text;html=1;strokeColor=none;fillColor=none;align=center;verticalAlign=middle;whiteSpace=wrap;rounded=0;" vertex="1" parent="1">
          <mxGeometry x="560" y="320" width="20" height="30" as="geometry" />
        </mxCell>
        <mxCell id="qlhWGT8GeB3_BYejZq6_-50" value="1" style="text;html=1;strokeColor=none;fillColor=none;align=center;verticalAlign=middle;whiteSpace=wrap;rounded=0;" vertex="1" parent="1">
          <mxGeometry x="390" y="330" width="20" height="30" as="geometry" />
        </mxCell>
        <mxCell id="qlhWGT8GeB3_BYejZq6_-51" value="1" style="text;html=1;strokeColor=none;fillColor=none;align=center;verticalAlign=middle;whiteSpace=wrap;rounded=0;" vertex="1" parent="1">
          <mxGeometry x="290" y="330" width="20" height="30" as="geometry" />
        </mxCell>
        <mxCell id="qlhWGT8GeB3_BYejZq6_-52" value="1" style="text;html=1;strokeColor=none;fillColor=none;align=center;verticalAlign=middle;whiteSpace=wrap;rounded=0;" vertex="1" parent="1">
          <mxGeometry x="320" y="320" width="20" height="30" as="geometry" />
        </mxCell>
        <mxCell id="qlhWGT8GeB3_BYejZq6_-53" value="1" style="text;html=1;strokeColor=none;fillColor=none;align=center;verticalAlign=middle;whiteSpace=wrap;rounded=0;" vertex="1" parent="1">
          <mxGeometry x="210" y="310" width="20" height="30" as="geometry" />
        </mxCell>
        <mxCell id="qlhWGT8GeB3_BYejZq6_-54" value="1" style="text;html=1;strokeColor=none;fillColor=none;align=center;verticalAlign=middle;whiteSpace=wrap;rounded=0;" vertex="1" parent="1">
          <mxGeometry x="150" y="330" width="20" height="30" as="geometry" />
        </mxCell>
        <mxCell id="qlhWGT8GeB3_BYejZq6_-55" value="1" style="text;html=1;strokeColor=none;fillColor=none;align=center;verticalAlign=middle;whiteSpace=wrap;rounded=0;" vertex="1" parent="1">
          <mxGeometry x="600" y="480" width="20" height="30" as="geometry" />
        </mxCell>
        <mxCell id="qlhWGT8GeB3_BYejZq6_-56" value="1" style="text;html=1;strokeColor=none;fillColor=none;align=center;verticalAlign=middle;whiteSpace=wrap;rounded=0;fontColor=#000000;" vertex="1" parent="1">
          <mxGeometry x="530" y="460" width="20" height="30" as="geometry" />
        </mxCell>
        <mxCell id="qlhWGT8GeB3_BYejZq6_-57" value="1" style="text;html=1;strokeColor=none;fillColor=none;align=center;verticalAlign=middle;whiteSpace=wrap;rounded=0;" vertex="1" parent="1">
          <mxGeometry x="480" y="450" width="20" height="30" as="geometry" />
        </mxCell>
        <mxCell id="qlhWGT8GeB3_BYejZq6_-58" value="1" style="text;html=1;strokeColor=none;fillColor=none;align=center;verticalAlign=middle;whiteSpace=wrap;rounded=0;" vertex="1" parent="1">
          <mxGeometry x="410" y="440" width="20" height="30" as="geometry" />
        </mxCell>
        <mxCell id="qlhWGT8GeB3_BYejZq6_-59" value="1" style="text;html=1;strokeColor=none;fillColor=none;align=center;verticalAlign=middle;whiteSpace=wrap;rounded=0;" vertex="1" parent="1">
          <mxGeometry x="340" y="440" width="20" height="30" as="geometry" />
        </mxCell>
        <mxCell id="qlhWGT8GeB3_BYejZq6_-60" value="1" style="text;html=1;strokeColor=none;fillColor=none;align=center;verticalAlign=middle;whiteSpace=wrap;rounded=0;" vertex="1" parent="1">
          <mxGeometry x="300" y="460" width="20" height="30" as="geometry" />
        </mxCell>
      </root>
    </mxGraphModel>
  </diagram>
  <diagram id="zrp200pG8M2-J0ATNJXz" name="Page-6">
    <mxGraphModel dx="1422" dy="754" grid="1" gridSize="10" guides="1" tooltips="1" connect="1" arrows="1" fold="1" page="1" pageScale="1" pageWidth="827" pageHeight="1169" math="0" shadow="0">
      <root>
        <mxCell id="0" />
        <mxCell id="1" parent="0" />
        <mxCell id="XOKKWDRisBcclgg4e60s-1" value="" style="ellipse;whiteSpace=wrap;html=1;" vertex="1" parent="1">
          <mxGeometry x="260" y="260" width="60" height="60" as="geometry" />
        </mxCell>
        <mxCell id="XOKKWDRisBcclgg4e60s-2" value="" style="ellipse;whiteSpace=wrap;html=1;" vertex="1" parent="1">
          <mxGeometry x="150" y="260" width="60" height="60" as="geometry" />
        </mxCell>
        <mxCell id="XOKKWDRisBcclgg4e60s-3" value="" style="ellipse;whiteSpace=wrap;html=1;" vertex="1" parent="1">
          <mxGeometry x="260" y="370" width="60" height="60" as="geometry" />
        </mxCell>
        <mxCell id="XOKKWDRisBcclgg4e60s-4" value="" style="ellipse;whiteSpace=wrap;html=1;" vertex="1" parent="1">
          <mxGeometry x="150" y="370" width="60" height="60" as="geometry" />
        </mxCell>
        <mxCell id="XOKKWDRisBcclgg4e60s-5" value="" style="ellipse;whiteSpace=wrap;html=1;" vertex="1" parent="1">
          <mxGeometry x="470" y="260" width="60" height="60" as="geometry" />
        </mxCell>
        <mxCell id="XOKKWDRisBcclgg4e60s-6" value="" style="ellipse;whiteSpace=wrap;html=1;" vertex="1" parent="1">
          <mxGeometry x="360" y="260" width="60" height="60" as="geometry" />
        </mxCell>
        <mxCell id="XOKKWDRisBcclgg4e60s-7" value="" style="ellipse;whiteSpace=wrap;html=1;" vertex="1" parent="1">
          <mxGeometry x="470" y="370" width="60" height="60" as="geometry" />
        </mxCell>
        <mxCell id="XOKKWDRisBcclgg4e60s-8" value="" style="ellipse;whiteSpace=wrap;html=1;" vertex="1" parent="1">
          <mxGeometry x="360" y="370" width="60" height="60" as="geometry" />
        </mxCell>
        <mxCell id="XOKKWDRisBcclgg4e60s-9" value="" style="ellipse;whiteSpace=wrap;html=1;" vertex="1" parent="1">
          <mxGeometry x="670" y="260" width="60" height="60" as="geometry" />
        </mxCell>
        <mxCell id="XOKKWDRisBcclgg4e60s-10" value="" style="ellipse;whiteSpace=wrap;html=1;" vertex="1" parent="1">
          <mxGeometry x="560" y="260" width="60" height="60" as="geometry" />
        </mxCell>
        <mxCell id="XOKKWDRisBcclgg4e60s-11" value="" style="ellipse;whiteSpace=wrap;html=1;" vertex="1" parent="1">
          <mxGeometry x="670" y="370" width="60" height="60" as="geometry" />
        </mxCell>
        <mxCell id="XOKKWDRisBcclgg4e60s-12" value="" style="ellipse;whiteSpace=wrap;html=1;" vertex="1" parent="1">
          <mxGeometry x="560" y="370" width="60" height="60" as="geometry" />
        </mxCell>
        <mxCell id="XOKKWDRisBcclgg4e60s-13" value="S" style="ellipse;whiteSpace=wrap;html=1;" vertex="1" parent="1">
          <mxGeometry x="410" y="130" width="60" height="60" as="geometry" />
        </mxCell>
        <mxCell id="XOKKWDRisBcclgg4e60s-14" value="t" style="ellipse;whiteSpace=wrap;html=1;" vertex="1" parent="1">
          <mxGeometry x="410" y="500" width="60" height="60" as="geometry" />
        </mxCell>
        <mxCell id="XOKKWDRisBcclgg4e60s-15" value="" style="endArrow=classic;html=1;rounded=0;fillColor=#ffe6cc;strokeColor=#000000;" edge="1" parent="1">
          <mxGeometry width="50" height="50" relative="1" as="geometry">
            <mxPoint x="400" y="250" as="sourcePoint" />
            <mxPoint x="420" y="200" as="targetPoint" />
            <Array as="points" />
          </mxGeometry>
        </mxCell>
        <mxCell id="XOKKWDRisBcclgg4e60s-16" value="" style="endArrow=classic;html=1;rounded=0;" edge="1" parent="1">
          <mxGeometry width="50" height="50" relative="1" as="geometry">
            <mxPoint x="490" y="250" as="sourcePoint" />
            <mxPoint x="460" y="200" as="targetPoint" />
          </mxGeometry>
        </mxCell>
        <mxCell id="XOKKWDRisBcclgg4e60s-17" value="" style="endArrow=classic;html=1;rounded=0;fillColor=#ffe6cc;strokeColor=#000000;" edge="1" parent="1">
          <mxGeometry width="50" height="50" relative="1" as="geometry">
            <mxPoint x="550" y="250" as="sourcePoint" />
            <mxPoint x="480" y="190" as="targetPoint" />
          </mxGeometry>
        </mxCell>
        <mxCell id="XOKKWDRisBcclgg4e60s-18" value="" style="endArrow=classic;html=1;rounded=0;fillColor=#ffe6cc;strokeColor=#000000;" edge="1" parent="1">
          <mxGeometry width="50" height="50" relative="1" as="geometry">
            <mxPoint x="660" y="280" as="sourcePoint" />
            <mxPoint x="480" y="170" as="targetPoint" />
          </mxGeometry>
        </mxCell>
        <mxCell id="XOKKWDRisBcclgg4e60s-19" value="" style="endArrow=classic;html=1;rounded=0;fillColor=#ffe6cc;strokeColor=#d79b00;" edge="1" parent="1">
          <mxGeometry width="50" height="50" relative="1" as="geometry">
            <mxPoint x="400" y="180" as="sourcePoint" />
            <mxPoint x="320" y="250" as="targetPoint" />
          </mxGeometry>
        </mxCell>
        <mxCell id="XOKKWDRisBcclgg4e60s-20" value="" style="endArrow=classic;html=1;rounded=0;" edge="1" parent="1">
          <mxGeometry width="50" height="50" relative="1" as="geometry">
            <mxPoint x="390" y="160" as="sourcePoint" />
            <mxPoint x="210" y="260" as="targetPoint" />
          </mxGeometry>
        </mxCell>
        <mxCell id="XOKKWDRisBcclgg4e60s-21" value="" style="endArrow=classic;html=1;rounded=0;" edge="1" parent="1">
          <mxGeometry width="50" height="50" relative="1" as="geometry">
            <mxPoint x="480" y="520" as="sourcePoint" />
            <mxPoint x="660" y="440" as="targetPoint" />
          </mxGeometry>
        </mxCell>
        <mxCell id="XOKKWDRisBcclgg4e60s-22" value="" style="endArrow=classic;html=1;rounded=0;fillColor=#ffe6cc;strokeColor=#000000;" edge="1" parent="1">
          <mxGeometry width="50" height="50" relative="1" as="geometry">
            <mxPoint x="480" y="500" as="sourcePoint" />
            <mxPoint x="560" y="430" as="targetPoint" />
            <Array as="points" />
          </mxGeometry>
        </mxCell>
        <mxCell id="XOKKWDRisBcclgg4e60s-23" value="" style="endArrow=classic;html=1;rounded=0;" edge="1" parent="1">
          <mxGeometry width="50" height="50" relative="1" as="geometry">
            <mxPoint x="460" y="490" as="sourcePoint" />
            <mxPoint x="480" y="440" as="targetPoint" />
          </mxGeometry>
        </mxCell>
        <mxCell id="XOKKWDRisBcclgg4e60s-24" value="" style="endArrow=classic;html=1;rounded=0;fillColor=#ffe6cc;strokeColor=#000000;entryX=0.5;entryY=1;entryDx=0;entryDy=0;" edge="1" parent="1" target="XOKKWDRisBcclgg4e60s-8">
          <mxGeometry width="50" height="50" relative="1" as="geometry">
            <mxPoint x="420" y="500" as="sourcePoint" />
            <mxPoint x="400" y="440" as="targetPoint" />
          </mxGeometry>
        </mxCell>
        <mxCell id="XOKKWDRisBcclgg4e60s-25" value="" style="endArrow=classic;html=1;rounded=0;fillColor=#ffe6cc;strokeColor=#d79b00;" edge="1" parent="1">
          <mxGeometry width="50" height="50" relative="1" as="geometry">
            <mxPoint x="300" y="440" as="sourcePoint" />
            <mxPoint x="390" y="510" as="targetPoint" />
          </mxGeometry>
        </mxCell>
        <mxCell id="XOKKWDRisBcclgg4e60s-26" value="" style="endArrow=classic;html=1;rounded=0;" edge="1" parent="1">
          <mxGeometry width="50" height="50" relative="1" as="geometry">
            <mxPoint x="210" y="440" as="sourcePoint" />
            <mxPoint x="380" y="530" as="targetPoint" />
          </mxGeometry>
        </mxCell>
        <mxCell id="XOKKWDRisBcclgg4e60s-27" value="" style="endArrow=classic;html=1;rounded=0;entryX=0.5;entryY=0;entryDx=0;entryDy=0;exitX=0.5;exitY=1;exitDx=0;exitDy=0;exitPerimeter=0;" edge="1" parent="1" source="XOKKWDRisBcclgg4e60s-2" target="XOKKWDRisBcclgg4e60s-4">
          <mxGeometry width="50" height="50" relative="1" as="geometry">
            <mxPoint x="180" y="330" as="sourcePoint" />
            <mxPoint x="440" y="360" as="targetPoint" />
          </mxGeometry>
        </mxCell>
        <mxCell id="XOKKWDRisBcclgg4e60s-28" value="" style="endArrow=classic;html=1;rounded=0;entryX=0.5;entryY=0;entryDx=0;entryDy=0;exitX=0.5;exitY=1;exitDx=0;exitDy=0;exitPerimeter=0;fillColor=#ffe6cc;strokeColor=#d79b00;" edge="1" parent="1">
          <mxGeometry width="50" height="50" relative="1" as="geometry">
            <mxPoint x="289.5" y="320" as="sourcePoint" />
            <mxPoint x="289.5" y="370" as="targetPoint" />
          </mxGeometry>
        </mxCell>
        <mxCell id="XOKKWDRisBcclgg4e60s-29" value="" style="endArrow=classic;html=1;rounded=0;exitX=0.5;exitY=0;exitDx=0;exitDy=0;" edge="1" parent="1" source="XOKKWDRisBcclgg4e60s-7">
          <mxGeometry width="50" height="50" relative="1" as="geometry">
            <mxPoint x="530" y="360" as="sourcePoint" />
            <mxPoint x="500" y="320" as="targetPoint" />
          </mxGeometry>
        </mxCell>
        <mxCell id="XOKKWDRisBcclgg4e60s-30" value="" style="endArrow=classic;html=1;rounded=0;entryX=0.5;entryY=0;entryDx=0;entryDy=0;exitX=0.5;exitY=1;exitDx=0;exitDy=0;exitPerimeter=0;fillColor=#ffe6cc;strokeColor=#000000;" edge="1" parent="1">
          <mxGeometry width="50" height="50" relative="1" as="geometry">
            <mxPoint x="589.5" y="320" as="sourcePoint" />
            <mxPoint x="589.5" y="370" as="targetPoint" />
          </mxGeometry>
        </mxCell>
        <mxCell id="XOKKWDRisBcclgg4e60s-31" value="" style="endArrow=classic;html=1;rounded=0;entryX=0.783;entryY=0.05;entryDx=0;entryDy=0;exitX=0;exitY=1;exitDx=0;exitDy=0;entryPerimeter=0;" edge="1" parent="1" source="XOKKWDRisBcclgg4e60s-1" target="XOKKWDRisBcclgg4e60s-4">
          <mxGeometry width="50" height="50" relative="1" as="geometry">
            <mxPoint x="230" y="320" as="sourcePoint" />
            <mxPoint x="230" y="370" as="targetPoint" />
          </mxGeometry>
        </mxCell>
        <mxCell id="XOKKWDRisBcclgg4e60s-32" value="" style="endArrow=classic;html=1;rounded=0;exitX=0;exitY=0.667;exitDx=0;exitDy=0;exitPerimeter=0;" edge="1" parent="1" source="XOKKWDRisBcclgg4e60s-6" target="XOKKWDRisBcclgg4e60s-4">
          <mxGeometry width="50" height="50" relative="1" as="geometry">
            <mxPoint x="330" y="320" as="sourcePoint" />
            <mxPoint x="330" y="370" as="targetPoint" />
          </mxGeometry>
        </mxCell>
        <mxCell id="XOKKWDRisBcclgg4e60s-33" value="" style="endArrow=classic;html=1;rounded=0;entryX=0.5;entryY=0;entryDx=0;entryDy=0;exitX=0.5;exitY=1;exitDx=0;exitDy=0;exitPerimeter=0;" edge="1" parent="1">
          <mxGeometry width="50" height="50" relative="1" as="geometry">
            <mxPoint x="390" y="320" as="sourcePoint" />
            <mxPoint x="390" y="370" as="targetPoint" />
          </mxGeometry>
        </mxCell>
        <mxCell id="XOKKWDRisBcclgg4e60s-34" value="" style="endArrow=classic;html=1;rounded=0;entryX=1.067;entryY=0.667;entryDx=0;entryDy=0;entryPerimeter=0;exitX=0.017;exitY=0.25;exitDx=0;exitDy=0;exitPerimeter=0;" edge="1" parent="1" source="XOKKWDRisBcclgg4e60s-11" target="XOKKWDRisBcclgg4e60s-6">
          <mxGeometry width="50" height="50" relative="1" as="geometry">
            <mxPoint x="660" y="490" as="sourcePoint" />
            <mxPoint x="419" y="360" as="targetPoint" />
          </mxGeometry>
        </mxCell>
        <mxCell id="XOKKWDRisBcclgg4e60s-35" value="" style="endArrow=classic;html=1;rounded=0;exitX=0;exitY=1;exitDx=0;exitDy=0;" edge="1" parent="1" source="XOKKWDRisBcclgg4e60s-5" target="XOKKWDRisBcclgg4e60s-8">
          <mxGeometry width="50" height="50" relative="1" as="geometry">
            <mxPoint x="509.5" y="330" as="sourcePoint" />
            <mxPoint x="509.5" y="380" as="targetPoint" />
          </mxGeometry>
        </mxCell>
        <mxCell id="XOKKWDRisBcclgg4e60s-36" value="" style="endArrow=classic;html=1;rounded=0;exitX=1.033;exitY=0.35;exitDx=0;exitDy=0;exitPerimeter=0;fillColor=#ffe6cc;strokeColor=#000000;entryX=0;entryY=1;entryDx=0;entryDy=0;" edge="1" parent="1" source="XOKKWDRisBcclgg4e60s-8" target="XOKKWDRisBcclgg4e60s-10">
          <mxGeometry width="50" height="50" relative="1" as="geometry">
            <mxPoint x="519.5" y="340" as="sourcePoint" />
            <mxPoint x="450" y="420" as="targetPoint" />
          </mxGeometry>
        </mxCell>
        <mxCell id="XOKKWDRisBcclgg4e60s-37" value="" style="endArrow=classic;html=1;rounded=0;entryX=0.25;entryY=0.967;entryDx=0;entryDy=0;fillColor=#ffe6cc;strokeColor=#000000;fontColor=#000000;entryPerimeter=0;exitX=1;exitY=0;exitDx=0;exitDy=0;" edge="1" parent="1" source="XOKKWDRisBcclgg4e60s-12" target="XOKKWDRisBcclgg4e60s-9">
          <mxGeometry width="50" height="50" relative="1" as="geometry">
            <mxPoint x="630" y="379" as="sourcePoint" />
            <mxPoint x="529.5" y="400" as="targetPoint" />
          </mxGeometry>
        </mxCell>
        <mxCell id="XOKKWDRisBcclgg4e60s-38" value="1" style="text;html=1;strokeColor=none;fillColor=none;align=center;verticalAlign=middle;whiteSpace=wrap;rounded=0;" vertex="1" parent="1">
          <mxGeometry x="270" y="170" width="20" height="30" as="geometry" />
        </mxCell>
        <mxCell id="XOKKWDRisBcclgg4e60s-39" value="1" style="text;html=1;strokeColor=none;fillColor=none;align=center;verticalAlign=middle;whiteSpace=wrap;rounded=0;" vertex="1" parent="1">
          <mxGeometry x="320" y="200" width="20" height="30" as="geometry" />
        </mxCell>
        <mxCell id="XOKKWDRisBcclgg4e60s-40" value="1" style="text;html=1;strokeColor=none;fillColor=none;align=center;verticalAlign=middle;whiteSpace=wrap;rounded=0;" vertex="1" parent="1">
          <mxGeometry x="380" y="210" width="20" height="30" as="geometry" />
        </mxCell>
        <mxCell id="XOKKWDRisBcclgg4e60s-41" value="1" style="text;html=1;strokeColor=none;fillColor=none;align=center;verticalAlign=middle;whiteSpace=wrap;rounded=0;" vertex="1" parent="1">
          <mxGeometry x="450" y="210" width="20" height="30" as="geometry" />
        </mxCell>
        <mxCell id="XOKKWDRisBcclgg4e60s-42" value="1" style="text;html=1;strokeColor=none;fillColor=none;align=center;verticalAlign=middle;whiteSpace=wrap;rounded=0;" vertex="1" parent="1">
          <mxGeometry x="500" y="220" width="20" height="30" as="geometry" />
        </mxCell>
        <mxCell id="XOKKWDRisBcclgg4e60s-43" value="1" style="text;html=1;strokeColor=none;fillColor=none;align=center;verticalAlign=middle;whiteSpace=wrap;rounded=0;fontColor=#000000;" vertex="1" parent="1">
          <mxGeometry x="570" y="170" width="20" height="30" as="geometry" />
        </mxCell>
        <mxCell id="XOKKWDRisBcclgg4e60s-44" value="1" style="text;html=1;align=center;verticalAlign=middle;whiteSpace=wrap;rounded=0;fontColor=#000000;" vertex="1" parent="1">
          <mxGeometry x="640" y="310" width="20" height="30" as="geometry" />
        </mxCell>
        <mxCell id="XOKKWDRisBcclgg4e60s-45" value="1" style="text;html=1;strokeColor=none;fillColor=none;align=center;verticalAlign=middle;whiteSpace=wrap;rounded=0;" vertex="1" parent="1">
          <mxGeometry x="590" y="320" width="20" height="30" as="geometry" />
        </mxCell>
        <mxCell id="XOKKWDRisBcclgg4e60s-46" value="1" style="text;html=1;strokeColor=none;fillColor=none;align=center;verticalAlign=middle;whiteSpace=wrap;rounded=0;" vertex="1" parent="1">
          <mxGeometry x="530" y="300" width="20" height="30" as="geometry" />
        </mxCell>
        <mxCell id="XOKKWDRisBcclgg4e60s-47" value="1" style="text;html=1;strokeColor=none;fillColor=none;align=center;verticalAlign=middle;whiteSpace=wrap;rounded=0;" vertex="1" parent="1">
          <mxGeometry x="480" y="330" width="20" height="30" as="geometry" />
        </mxCell>
        <mxCell id="XOKKWDRisBcclgg4e60s-48" value="1" style="text;html=1;strokeColor=none;fillColor=none;align=center;verticalAlign=middle;whiteSpace=wrap;rounded=0;" vertex="1" parent="1">
          <mxGeometry x="560" y="320" width="20" height="30" as="geometry" />
        </mxCell>
        <mxCell id="XOKKWDRisBcclgg4e60s-49" value="1" style="text;html=1;strokeColor=none;fillColor=none;align=center;verticalAlign=middle;whiteSpace=wrap;rounded=0;" vertex="1" parent="1">
          <mxGeometry x="390" y="330" width="20" height="30" as="geometry" />
        </mxCell>
        <mxCell id="XOKKWDRisBcclgg4e60s-50" value="1" style="text;html=1;strokeColor=none;fillColor=none;align=center;verticalAlign=middle;whiteSpace=wrap;rounded=0;" vertex="1" parent="1">
          <mxGeometry x="290" y="330" width="20" height="30" as="geometry" />
        </mxCell>
        <mxCell id="XOKKWDRisBcclgg4e60s-51" value="1" style="text;html=1;strokeColor=none;fillColor=none;align=center;verticalAlign=middle;whiteSpace=wrap;rounded=0;" vertex="1" parent="1">
          <mxGeometry x="320" y="320" width="20" height="30" as="geometry" />
        </mxCell>
        <mxCell id="XOKKWDRisBcclgg4e60s-52" value="1" style="text;html=1;strokeColor=none;fillColor=none;align=center;verticalAlign=middle;whiteSpace=wrap;rounded=0;" vertex="1" parent="1">
          <mxGeometry x="210" y="310" width="20" height="30" as="geometry" />
        </mxCell>
        <mxCell id="XOKKWDRisBcclgg4e60s-53" value="1" style="text;html=1;strokeColor=none;fillColor=none;align=center;verticalAlign=middle;whiteSpace=wrap;rounded=0;" vertex="1" parent="1">
          <mxGeometry x="150" y="330" width="20" height="30" as="geometry" />
        </mxCell>
        <mxCell id="XOKKWDRisBcclgg4e60s-54" value="1" style="text;html=1;strokeColor=none;fillColor=none;align=center;verticalAlign=middle;whiteSpace=wrap;rounded=0;" vertex="1" parent="1">
          <mxGeometry x="600" y="480" width="20" height="30" as="geometry" />
        </mxCell>
        <mxCell id="XOKKWDRisBcclgg4e60s-55" value="1" style="text;html=1;strokeColor=none;fillColor=none;align=center;verticalAlign=middle;whiteSpace=wrap;rounded=0;fontColor=#000000;" vertex="1" parent="1">
          <mxGeometry x="530" y="460" width="20" height="30" as="geometry" />
        </mxCell>
        <mxCell id="XOKKWDRisBcclgg4e60s-56" value="1" style="text;html=1;strokeColor=none;fillColor=none;align=center;verticalAlign=middle;whiteSpace=wrap;rounded=0;" vertex="1" parent="1">
          <mxGeometry x="480" y="450" width="20" height="30" as="geometry" />
        </mxCell>
        <mxCell id="XOKKWDRisBcclgg4e60s-57" value="1" style="text;html=1;strokeColor=none;fillColor=none;align=center;verticalAlign=middle;whiteSpace=wrap;rounded=0;" vertex="1" parent="1">
          <mxGeometry x="410" y="440" width="20" height="30" as="geometry" />
        </mxCell>
        <mxCell id="XOKKWDRisBcclgg4e60s-58" value="1" style="text;html=1;strokeColor=none;fillColor=none;align=center;verticalAlign=middle;whiteSpace=wrap;rounded=0;" vertex="1" parent="1">
          <mxGeometry x="340" y="440" width="20" height="30" as="geometry" />
        </mxCell>
        <mxCell id="XOKKWDRisBcclgg4e60s-59" value="1" style="text;html=1;strokeColor=none;fillColor=none;align=center;verticalAlign=middle;whiteSpace=wrap;rounded=0;" vertex="1" parent="1">
          <mxGeometry x="300" y="460" width="20" height="30" as="geometry" />
        </mxCell>
      </root>
    </mxGraphModel>
  </diagram>
  <diagram id="vZKR_O_Otj0NwRPS7-_6" name="Page-7">
    <mxGraphModel dx="1422" dy="754" grid="1" gridSize="10" guides="1" tooltips="1" connect="1" arrows="1" fold="1" page="1" pageScale="1" pageWidth="827" pageHeight="1169" math="0" shadow="0">
      <root>
        <mxCell id="0" />
        <mxCell id="1" parent="0" />
        <mxCell id="WHltNDle-8Ib-OR6c_Cc-1" value="" style="ellipse;whiteSpace=wrap;html=1;" vertex="1" parent="1">
          <mxGeometry x="260" y="260" width="60" height="60" as="geometry" />
        </mxCell>
        <mxCell id="WHltNDle-8Ib-OR6c_Cc-2" value="" style="ellipse;whiteSpace=wrap;html=1;" vertex="1" parent="1">
          <mxGeometry x="150" y="260" width="60" height="60" as="geometry" />
        </mxCell>
        <mxCell id="WHltNDle-8Ib-OR6c_Cc-3" value="" style="ellipse;whiteSpace=wrap;html=1;" vertex="1" parent="1">
          <mxGeometry x="260" y="370" width="60" height="60" as="geometry" />
        </mxCell>
        <mxCell id="WHltNDle-8Ib-OR6c_Cc-4" value="" style="ellipse;whiteSpace=wrap;html=1;" vertex="1" parent="1">
          <mxGeometry x="150" y="370" width="60" height="60" as="geometry" />
        </mxCell>
        <mxCell id="WHltNDle-8Ib-OR6c_Cc-5" value="" style="ellipse;whiteSpace=wrap;html=1;" vertex="1" parent="1">
          <mxGeometry x="470" y="260" width="60" height="60" as="geometry" />
        </mxCell>
        <mxCell id="WHltNDle-8Ib-OR6c_Cc-6" value="" style="ellipse;whiteSpace=wrap;html=1;" vertex="1" parent="1">
          <mxGeometry x="360" y="260" width="60" height="60" as="geometry" />
        </mxCell>
        <mxCell id="WHltNDle-8Ib-OR6c_Cc-7" value="" style="ellipse;whiteSpace=wrap;html=1;" vertex="1" parent="1">
          <mxGeometry x="470" y="370" width="60" height="60" as="geometry" />
        </mxCell>
        <mxCell id="WHltNDle-8Ib-OR6c_Cc-8" value="" style="ellipse;whiteSpace=wrap;html=1;" vertex="1" parent="1">
          <mxGeometry x="360" y="370" width="60" height="60" as="geometry" />
        </mxCell>
        <mxCell id="WHltNDle-8Ib-OR6c_Cc-9" value="" style="ellipse;whiteSpace=wrap;html=1;" vertex="1" parent="1">
          <mxGeometry x="670" y="260" width="60" height="60" as="geometry" />
        </mxCell>
        <mxCell id="WHltNDle-8Ib-OR6c_Cc-10" value="" style="ellipse;whiteSpace=wrap;html=1;" vertex="1" parent="1">
          <mxGeometry x="560" y="260" width="60" height="60" as="geometry" />
        </mxCell>
        <mxCell id="WHltNDle-8Ib-OR6c_Cc-11" value="" style="ellipse;whiteSpace=wrap;html=1;" vertex="1" parent="1">
          <mxGeometry x="670" y="370" width="60" height="60" as="geometry" />
        </mxCell>
        <mxCell id="WHltNDle-8Ib-OR6c_Cc-12" value="" style="ellipse;whiteSpace=wrap;html=1;" vertex="1" parent="1">
          <mxGeometry x="560" y="370" width="60" height="60" as="geometry" />
        </mxCell>
        <mxCell id="WHltNDle-8Ib-OR6c_Cc-13" value="S" style="ellipse;whiteSpace=wrap;html=1;" vertex="1" parent="1">
          <mxGeometry x="410" y="130" width="60" height="60" as="geometry" />
        </mxCell>
        <mxCell id="WHltNDle-8Ib-OR6c_Cc-14" value="t" style="ellipse;whiteSpace=wrap;html=1;" vertex="1" parent="1">
          <mxGeometry x="410" y="500" width="60" height="60" as="geometry" />
        </mxCell>
        <mxCell id="WHltNDle-8Ib-OR6c_Cc-15" value="" style="endArrow=classic;html=1;rounded=0;fillColor=#ffe6cc;strokeColor=#000000;" edge="1" parent="1">
          <mxGeometry width="50" height="50" relative="1" as="geometry">
            <mxPoint x="400" y="250" as="sourcePoint" />
            <mxPoint x="420" y="200" as="targetPoint" />
            <Array as="points" />
          </mxGeometry>
        </mxCell>
        <mxCell id="WHltNDle-8Ib-OR6c_Cc-16" value="" style="endArrow=classic;html=1;rounded=0;" edge="1" parent="1">
          <mxGeometry width="50" height="50" relative="1" as="geometry">
            <mxPoint x="490" y="250" as="sourcePoint" />
            <mxPoint x="460" y="200" as="targetPoint" />
          </mxGeometry>
        </mxCell>
        <mxCell id="WHltNDle-8Ib-OR6c_Cc-17" value="" style="endArrow=classic;html=1;rounded=0;fillColor=#ffe6cc;strokeColor=#000000;" edge="1" parent="1">
          <mxGeometry width="50" height="50" relative="1" as="geometry">
            <mxPoint x="550" y="250" as="sourcePoint" />
            <mxPoint x="480" y="190" as="targetPoint" />
          </mxGeometry>
        </mxCell>
        <mxCell id="WHltNDle-8Ib-OR6c_Cc-18" value="" style="endArrow=classic;html=1;rounded=0;fillColor=#ffe6cc;strokeColor=#000000;" edge="1" parent="1">
          <mxGeometry width="50" height="50" relative="1" as="geometry">
            <mxPoint x="660" y="280" as="sourcePoint" />
            <mxPoint x="480" y="170" as="targetPoint" />
          </mxGeometry>
        </mxCell>
        <mxCell id="WHltNDle-8Ib-OR6c_Cc-19" value="" style="endArrow=classic;html=1;rounded=0;fillColor=#ffe6cc;strokeColor=#000000;" edge="1" parent="1">
          <mxGeometry width="50" height="50" relative="1" as="geometry">
            <mxPoint x="330" y="250" as="sourcePoint" />
            <mxPoint x="400" y="180" as="targetPoint" />
          </mxGeometry>
        </mxCell>
        <mxCell id="WHltNDle-8Ib-OR6c_Cc-20" value="" style="endArrow=classic;html=1;rounded=0;fillColor=#ffe6cc;strokeColor=#d79b00;" edge="1" parent="1">
          <mxGeometry width="50" height="50" relative="1" as="geometry">
            <mxPoint x="390" y="160" as="sourcePoint" />
            <mxPoint x="210" y="260" as="targetPoint" />
          </mxGeometry>
        </mxCell>
        <mxCell id="WHltNDle-8Ib-OR6c_Cc-21" value="" style="endArrow=classic;html=1;rounded=0;" edge="1" parent="1">
          <mxGeometry width="50" height="50" relative="1" as="geometry">
            <mxPoint x="480" y="520" as="sourcePoint" />
            <mxPoint x="660" y="440" as="targetPoint" />
          </mxGeometry>
        </mxCell>
        <mxCell id="WHltNDle-8Ib-OR6c_Cc-22" value="" style="endArrow=classic;html=1;rounded=0;fillColor=#ffe6cc;strokeColor=#000000;" edge="1" parent="1">
          <mxGeometry width="50" height="50" relative="1" as="geometry">
            <mxPoint x="480" y="500" as="sourcePoint" />
            <mxPoint x="560" y="430" as="targetPoint" />
            <Array as="points" />
          </mxGeometry>
        </mxCell>
        <mxCell id="WHltNDle-8Ib-OR6c_Cc-23" value="" style="endArrow=classic;html=1;rounded=0;" edge="1" parent="1">
          <mxGeometry width="50" height="50" relative="1" as="geometry">
            <mxPoint x="460" y="490" as="sourcePoint" />
            <mxPoint x="480" y="440" as="targetPoint" />
          </mxGeometry>
        </mxCell>
        <mxCell id="WHltNDle-8Ib-OR6c_Cc-24" value="" style="endArrow=classic;html=1;rounded=0;fillColor=#ffe6cc;strokeColor=#000000;entryX=0.5;entryY=1;entryDx=0;entryDy=0;" edge="1" parent="1" target="WHltNDle-8Ib-OR6c_Cc-8">
          <mxGeometry width="50" height="50" relative="1" as="geometry">
            <mxPoint x="420" y="500" as="sourcePoint" />
            <mxPoint x="400" y="440" as="targetPoint" />
          </mxGeometry>
        </mxCell>
        <mxCell id="WHltNDle-8Ib-OR6c_Cc-25" value="" style="endArrow=classic;html=1;rounded=0;fillColor=#ffe6cc;strokeColor=#000000;" edge="1" parent="1">
          <mxGeometry width="50" height="50" relative="1" as="geometry">
            <mxPoint x="390" y="500" as="sourcePoint" />
            <mxPoint x="300" y="440" as="targetPoint" />
          </mxGeometry>
        </mxCell>
        <mxCell id="WHltNDle-8Ib-OR6c_Cc-26" value="" style="endArrow=classic;html=1;rounded=0;fillColor=#ffe6cc;strokeColor=#d79b00;" edge="1" parent="1">
          <mxGeometry width="50" height="50" relative="1" as="geometry">
            <mxPoint x="210" y="440" as="sourcePoint" />
            <mxPoint x="380" y="530" as="targetPoint" />
          </mxGeometry>
        </mxCell>
        <mxCell id="WHltNDle-8Ib-OR6c_Cc-27" value="" style="endArrow=classic;html=1;rounded=0;entryX=0.5;entryY=0;entryDx=0;entryDy=0;exitX=0.5;exitY=1;exitDx=0;exitDy=0;exitPerimeter=0;fillColor=#ffe6cc;strokeColor=#d79b00;" edge="1" parent="1" source="WHltNDle-8Ib-OR6c_Cc-2" target="WHltNDle-8Ib-OR6c_Cc-4">
          <mxGeometry width="50" height="50" relative="1" as="geometry">
            <mxPoint x="180" y="330" as="sourcePoint" />
            <mxPoint x="440" y="360" as="targetPoint" />
          </mxGeometry>
        </mxCell>
        <mxCell id="WHltNDle-8Ib-OR6c_Cc-28" value="" style="endArrow=classic;html=1;rounded=0;entryX=0.5;entryY=1;entryDx=0;entryDy=0;fillColor=#ffe6cc;strokeColor=#000000;exitX=0.5;exitY=0;exitDx=0;exitDy=0;" edge="1" parent="1" source="WHltNDle-8Ib-OR6c_Cc-3" target="WHltNDle-8Ib-OR6c_Cc-1">
          <mxGeometry width="50" height="50" relative="1" as="geometry">
            <mxPoint x="250" y="340" as="sourcePoint" />
            <mxPoint x="289.5" y="370" as="targetPoint" />
          </mxGeometry>
        </mxCell>
        <mxCell id="WHltNDle-8Ib-OR6c_Cc-29" value="" style="endArrow=classic;html=1;rounded=0;exitX=0.5;exitY=0;exitDx=0;exitDy=0;" edge="1" parent="1" source="WHltNDle-8Ib-OR6c_Cc-7">
          <mxGeometry width="50" height="50" relative="1" as="geometry">
            <mxPoint x="530" y="360" as="sourcePoint" />
            <mxPoint x="500" y="320" as="targetPoint" />
          </mxGeometry>
        </mxCell>
        <mxCell id="WHltNDle-8Ib-OR6c_Cc-30" value="" style="endArrow=classic;html=1;rounded=0;entryX=0.5;entryY=0;entryDx=0;entryDy=0;exitX=0.5;exitY=1;exitDx=0;exitDy=0;exitPerimeter=0;fillColor=#ffe6cc;strokeColor=#000000;" edge="1" parent="1">
          <mxGeometry width="50" height="50" relative="1" as="geometry">
            <mxPoint x="589.5" y="320" as="sourcePoint" />
            <mxPoint x="589.5" y="370" as="targetPoint" />
          </mxGeometry>
        </mxCell>
        <mxCell id="WHltNDle-8Ib-OR6c_Cc-31" value="" style="endArrow=classic;html=1;rounded=0;entryX=0.783;entryY=0.05;entryDx=0;entryDy=0;exitX=0;exitY=1;exitDx=0;exitDy=0;entryPerimeter=0;" edge="1" parent="1" source="WHltNDle-8Ib-OR6c_Cc-1" target="WHltNDle-8Ib-OR6c_Cc-4">
          <mxGeometry width="50" height="50" relative="1" as="geometry">
            <mxPoint x="230" y="320" as="sourcePoint" />
            <mxPoint x="230" y="370" as="targetPoint" />
          </mxGeometry>
        </mxCell>
        <mxCell id="WHltNDle-8Ib-OR6c_Cc-32" value="" style="endArrow=classic;html=1;rounded=0;exitX=0;exitY=0.667;exitDx=0;exitDy=0;exitPerimeter=0;" edge="1" parent="1" source="WHltNDle-8Ib-OR6c_Cc-6" target="WHltNDle-8Ib-OR6c_Cc-4">
          <mxGeometry width="50" height="50" relative="1" as="geometry">
            <mxPoint x="330" y="320" as="sourcePoint" />
            <mxPoint x="330" y="370" as="targetPoint" />
          </mxGeometry>
        </mxCell>
        <mxCell id="WHltNDle-8Ib-OR6c_Cc-33" value="" style="endArrow=classic;html=1;rounded=0;entryX=0.5;entryY=0;entryDx=0;entryDy=0;exitX=0.5;exitY=1;exitDx=0;exitDy=0;exitPerimeter=0;" edge="1" parent="1">
          <mxGeometry width="50" height="50" relative="1" as="geometry">
            <mxPoint x="390" y="320" as="sourcePoint" />
            <mxPoint x="390" y="370" as="targetPoint" />
          </mxGeometry>
        </mxCell>
        <mxCell id="WHltNDle-8Ib-OR6c_Cc-34" value="" style="endArrow=classic;html=1;rounded=0;entryX=1.067;entryY=0.667;entryDx=0;entryDy=0;entryPerimeter=0;exitX=0.017;exitY=0.25;exitDx=0;exitDy=0;exitPerimeter=0;" edge="1" parent="1" source="WHltNDle-8Ib-OR6c_Cc-11" target="WHltNDle-8Ib-OR6c_Cc-6">
          <mxGeometry width="50" height="50" relative="1" as="geometry">
            <mxPoint x="660" y="490" as="sourcePoint" />
            <mxPoint x="419" y="360" as="targetPoint" />
          </mxGeometry>
        </mxCell>
        <mxCell id="WHltNDle-8Ib-OR6c_Cc-35" value="" style="endArrow=classic;html=1;rounded=0;exitX=0;exitY=1;exitDx=0;exitDy=0;" edge="1" parent="1" source="WHltNDle-8Ib-OR6c_Cc-5" target="WHltNDle-8Ib-OR6c_Cc-8">
          <mxGeometry width="50" height="50" relative="1" as="geometry">
            <mxPoint x="509.5" y="330" as="sourcePoint" />
            <mxPoint x="509.5" y="380" as="targetPoint" />
          </mxGeometry>
        </mxCell>
        <mxCell id="WHltNDle-8Ib-OR6c_Cc-36" value="" style="endArrow=classic;html=1;rounded=0;exitX=1.033;exitY=0.35;exitDx=0;exitDy=0;exitPerimeter=0;fillColor=#ffe6cc;strokeColor=#000000;entryX=0;entryY=1;entryDx=0;entryDy=0;" edge="1" parent="1" source="WHltNDle-8Ib-OR6c_Cc-8" target="WHltNDle-8Ib-OR6c_Cc-10">
          <mxGeometry width="50" height="50" relative="1" as="geometry">
            <mxPoint x="519.5" y="340" as="sourcePoint" />
            <mxPoint x="450" y="420" as="targetPoint" />
          </mxGeometry>
        </mxCell>
        <mxCell id="WHltNDle-8Ib-OR6c_Cc-37" value="" style="endArrow=classic;html=1;rounded=0;entryX=0.25;entryY=0.967;entryDx=0;entryDy=0;fillColor=#ffe6cc;strokeColor=#000000;fontColor=#000000;entryPerimeter=0;exitX=1;exitY=0;exitDx=0;exitDy=0;" edge="1" parent="1" source="WHltNDle-8Ib-OR6c_Cc-12" target="WHltNDle-8Ib-OR6c_Cc-9">
          <mxGeometry width="50" height="50" relative="1" as="geometry">
            <mxPoint x="630" y="379" as="sourcePoint" />
            <mxPoint x="529.5" y="400" as="targetPoint" />
          </mxGeometry>
        </mxCell>
        <mxCell id="WHltNDle-8Ib-OR6c_Cc-38" value="1" style="text;html=1;strokeColor=none;fillColor=none;align=center;verticalAlign=middle;whiteSpace=wrap;rounded=0;" vertex="1" parent="1">
          <mxGeometry x="270" y="170" width="20" height="30" as="geometry" />
        </mxCell>
        <mxCell id="WHltNDle-8Ib-OR6c_Cc-39" value="1" style="text;html=1;strokeColor=none;fillColor=none;align=center;verticalAlign=middle;whiteSpace=wrap;rounded=0;" vertex="1" parent="1">
          <mxGeometry x="320" y="200" width="20" height="30" as="geometry" />
        </mxCell>
        <mxCell id="WHltNDle-8Ib-OR6c_Cc-40" value="1" style="text;html=1;strokeColor=none;fillColor=none;align=center;verticalAlign=middle;whiteSpace=wrap;rounded=0;" vertex="1" parent="1">
          <mxGeometry x="380" y="210" width="20" height="30" as="geometry" />
        </mxCell>
        <mxCell id="WHltNDle-8Ib-OR6c_Cc-41" value="1" style="text;html=1;strokeColor=none;fillColor=none;align=center;verticalAlign=middle;whiteSpace=wrap;rounded=0;" vertex="1" parent="1">
          <mxGeometry x="450" y="210" width="20" height="30" as="geometry" />
        </mxCell>
        <mxCell id="WHltNDle-8Ib-OR6c_Cc-42" value="1" style="text;html=1;strokeColor=none;fillColor=none;align=center;verticalAlign=middle;whiteSpace=wrap;rounded=0;" vertex="1" parent="1">
          <mxGeometry x="500" y="220" width="20" height="30" as="geometry" />
        </mxCell>
        <mxCell id="WHltNDle-8Ib-OR6c_Cc-43" value="1" style="text;html=1;strokeColor=none;fillColor=none;align=center;verticalAlign=middle;whiteSpace=wrap;rounded=0;fontColor=#000000;" vertex="1" parent="1">
          <mxGeometry x="570" y="170" width="20" height="30" as="geometry" />
        </mxCell>
        <mxCell id="WHltNDle-8Ib-OR6c_Cc-44" value="1" style="text;html=1;align=center;verticalAlign=middle;whiteSpace=wrap;rounded=0;fontColor=#000000;" vertex="1" parent="1">
          <mxGeometry x="640" y="310" width="20" height="30" as="geometry" />
        </mxCell>
        <mxCell id="WHltNDle-8Ib-OR6c_Cc-45" value="1" style="text;html=1;strokeColor=none;fillColor=none;align=center;verticalAlign=middle;whiteSpace=wrap;rounded=0;" vertex="1" parent="1">
          <mxGeometry x="590" y="320" width="20" height="30" as="geometry" />
        </mxCell>
        <mxCell id="WHltNDle-8Ib-OR6c_Cc-46" value="1" style="text;html=1;strokeColor=none;fillColor=none;align=center;verticalAlign=middle;whiteSpace=wrap;rounded=0;" vertex="1" parent="1">
          <mxGeometry x="530" y="300" width="20" height="30" as="geometry" />
        </mxCell>
        <mxCell id="WHltNDle-8Ib-OR6c_Cc-47" value="1" style="text;html=1;strokeColor=none;fillColor=none;align=center;verticalAlign=middle;whiteSpace=wrap;rounded=0;" vertex="1" parent="1">
          <mxGeometry x="480" y="330" width="20" height="30" as="geometry" />
        </mxCell>
        <mxCell id="WHltNDle-8Ib-OR6c_Cc-48" value="1" style="text;html=1;strokeColor=none;fillColor=none;align=center;verticalAlign=middle;whiteSpace=wrap;rounded=0;" vertex="1" parent="1">
          <mxGeometry x="560" y="320" width="20" height="30" as="geometry" />
        </mxCell>
        <mxCell id="WHltNDle-8Ib-OR6c_Cc-49" value="1" style="text;html=1;strokeColor=none;fillColor=none;align=center;verticalAlign=middle;whiteSpace=wrap;rounded=0;" vertex="1" parent="1">
          <mxGeometry x="390" y="330" width="20" height="30" as="geometry" />
        </mxCell>
        <mxCell id="WHltNDle-8Ib-OR6c_Cc-50" value="1" style="text;html=1;strokeColor=none;fillColor=none;align=center;verticalAlign=middle;whiteSpace=wrap;rounded=0;" vertex="1" parent="1">
          <mxGeometry x="290" y="330" width="20" height="30" as="geometry" />
        </mxCell>
        <mxCell id="WHltNDle-8Ib-OR6c_Cc-51" value="1" style="text;html=1;strokeColor=none;fillColor=none;align=center;verticalAlign=middle;whiteSpace=wrap;rounded=0;" vertex="1" parent="1">
          <mxGeometry x="320" y="320" width="20" height="30" as="geometry" />
        </mxCell>
        <mxCell id="WHltNDle-8Ib-OR6c_Cc-52" value="1" style="text;html=1;strokeColor=none;fillColor=none;align=center;verticalAlign=middle;whiteSpace=wrap;rounded=0;" vertex="1" parent="1">
          <mxGeometry x="210" y="310" width="20" height="30" as="geometry" />
        </mxCell>
        <mxCell id="WHltNDle-8Ib-OR6c_Cc-53" value="1" style="text;html=1;strokeColor=none;fillColor=none;align=center;verticalAlign=middle;whiteSpace=wrap;rounded=0;" vertex="1" parent="1">
          <mxGeometry x="150" y="330" width="20" height="30" as="geometry" />
        </mxCell>
        <mxCell id="WHltNDle-8Ib-OR6c_Cc-54" value="1" style="text;html=1;strokeColor=none;fillColor=none;align=center;verticalAlign=middle;whiteSpace=wrap;rounded=0;" vertex="1" parent="1">
          <mxGeometry x="600" y="480" width="20" height="30" as="geometry" />
        </mxCell>
        <mxCell id="WHltNDle-8Ib-OR6c_Cc-55" value="1" style="text;html=1;strokeColor=none;fillColor=none;align=center;verticalAlign=middle;whiteSpace=wrap;rounded=0;fontColor=#000000;" vertex="1" parent="1">
          <mxGeometry x="530" y="460" width="20" height="30" as="geometry" />
        </mxCell>
        <mxCell id="WHltNDle-8Ib-OR6c_Cc-56" value="1" style="text;html=1;strokeColor=none;fillColor=none;align=center;verticalAlign=middle;whiteSpace=wrap;rounded=0;" vertex="1" parent="1">
          <mxGeometry x="480" y="450" width="20" height="30" as="geometry" />
        </mxCell>
        <mxCell id="WHltNDle-8Ib-OR6c_Cc-57" value="1" style="text;html=1;strokeColor=none;fillColor=none;align=center;verticalAlign=middle;whiteSpace=wrap;rounded=0;" vertex="1" parent="1">
          <mxGeometry x="410" y="440" width="20" height="30" as="geometry" />
        </mxCell>
        <mxCell id="WHltNDle-8Ib-OR6c_Cc-58" value="1" style="text;html=1;strokeColor=none;fillColor=none;align=center;verticalAlign=middle;whiteSpace=wrap;rounded=0;" vertex="1" parent="1">
          <mxGeometry x="340" y="440" width="20" height="30" as="geometry" />
        </mxCell>
        <mxCell id="WHltNDle-8Ib-OR6c_Cc-59" value="1" style="text;html=1;strokeColor=none;fillColor=none;align=center;verticalAlign=middle;whiteSpace=wrap;rounded=0;" vertex="1" parent="1">
          <mxGeometry x="300" y="460" width="20" height="30" as="geometry" />
        </mxCell>
      </root>
    </mxGraphModel>
  </diagram>
  <diagram id="KtigUKWShjff9cro0Zya" name="Page-8">
    <mxGraphModel dx="1422" dy="754" grid="1" gridSize="10" guides="1" tooltips="1" connect="1" arrows="1" fold="1" page="1" pageScale="1" pageWidth="827" pageHeight="1169" math="0" shadow="0">
      <root>
        <mxCell id="0" />
        <mxCell id="1" parent="0" />
        <mxCell id="yqV1bEYTJE_WVtq2V0sh-1" value="" style="ellipse;whiteSpace=wrap;html=1;" vertex="1" parent="1">
          <mxGeometry x="260" y="260" width="60" height="60" as="geometry" />
        </mxCell>
        <mxCell id="yqV1bEYTJE_WVtq2V0sh-2" value="" style="ellipse;whiteSpace=wrap;html=1;" vertex="1" parent="1">
          <mxGeometry x="150" y="260" width="60" height="60" as="geometry" />
        </mxCell>
        <mxCell id="yqV1bEYTJE_WVtq2V0sh-3" value="" style="ellipse;whiteSpace=wrap;html=1;" vertex="1" parent="1">
          <mxGeometry x="260" y="370" width="60" height="60" as="geometry" />
        </mxCell>
        <mxCell id="yqV1bEYTJE_WVtq2V0sh-4" value="" style="ellipse;whiteSpace=wrap;html=1;" vertex="1" parent="1">
          <mxGeometry x="150" y="370" width="60" height="60" as="geometry" />
        </mxCell>
        <mxCell id="yqV1bEYTJE_WVtq2V0sh-5" value="" style="ellipse;whiteSpace=wrap;html=1;" vertex="1" parent="1">
          <mxGeometry x="470" y="260" width="60" height="60" as="geometry" />
        </mxCell>
        <mxCell id="yqV1bEYTJE_WVtq2V0sh-6" value="" style="ellipse;whiteSpace=wrap;html=1;" vertex="1" parent="1">
          <mxGeometry x="360" y="260" width="60" height="60" as="geometry" />
        </mxCell>
        <mxCell id="yqV1bEYTJE_WVtq2V0sh-7" value="" style="ellipse;whiteSpace=wrap;html=1;" vertex="1" parent="1">
          <mxGeometry x="470" y="370" width="60" height="60" as="geometry" />
        </mxCell>
        <mxCell id="yqV1bEYTJE_WVtq2V0sh-8" value="" style="ellipse;whiteSpace=wrap;html=1;" vertex="1" parent="1">
          <mxGeometry x="360" y="370" width="60" height="60" as="geometry" />
        </mxCell>
        <mxCell id="yqV1bEYTJE_WVtq2V0sh-9" value="" style="ellipse;whiteSpace=wrap;html=1;" vertex="1" parent="1">
          <mxGeometry x="670" y="260" width="60" height="60" as="geometry" />
        </mxCell>
        <mxCell id="yqV1bEYTJE_WVtq2V0sh-10" value="" style="ellipse;whiteSpace=wrap;html=1;" vertex="1" parent="1">
          <mxGeometry x="560" y="260" width="60" height="60" as="geometry" />
        </mxCell>
        <mxCell id="yqV1bEYTJE_WVtq2V0sh-11" value="" style="ellipse;whiteSpace=wrap;html=1;" vertex="1" parent="1">
          <mxGeometry x="670" y="370" width="60" height="60" as="geometry" />
        </mxCell>
        <mxCell id="yqV1bEYTJE_WVtq2V0sh-12" value="" style="ellipse;whiteSpace=wrap;html=1;" vertex="1" parent="1">
          <mxGeometry x="560" y="370" width="60" height="60" as="geometry" />
        </mxCell>
        <mxCell id="yqV1bEYTJE_WVtq2V0sh-13" value="S" style="ellipse;whiteSpace=wrap;html=1;" vertex="1" parent="1">
          <mxGeometry x="410" y="130" width="60" height="60" as="geometry" />
        </mxCell>
        <mxCell id="yqV1bEYTJE_WVtq2V0sh-14" value="t" style="ellipse;whiteSpace=wrap;html=1;" vertex="1" parent="1">
          <mxGeometry x="410" y="500" width="60" height="60" as="geometry" />
        </mxCell>
        <mxCell id="yqV1bEYTJE_WVtq2V0sh-15" value="" style="endArrow=classic;html=1;rounded=0;fillColor=#ffe6cc;strokeColor=#000000;" edge="1" parent="1">
          <mxGeometry width="50" height="50" relative="1" as="geometry">
            <mxPoint x="400" y="250" as="sourcePoint" />
            <mxPoint x="420" y="200" as="targetPoint" />
            <Array as="points" />
          </mxGeometry>
        </mxCell>
        <mxCell id="yqV1bEYTJE_WVtq2V0sh-16" value="" style="endArrow=classic;html=1;rounded=0;" edge="1" parent="1">
          <mxGeometry width="50" height="50" relative="1" as="geometry">
            <mxPoint x="490" y="250" as="sourcePoint" />
            <mxPoint x="460" y="200" as="targetPoint" />
          </mxGeometry>
        </mxCell>
        <mxCell id="yqV1bEYTJE_WVtq2V0sh-17" value="" style="endArrow=classic;html=1;rounded=0;fillColor=#ffe6cc;strokeColor=#000000;" edge="1" parent="1">
          <mxGeometry width="50" height="50" relative="1" as="geometry">
            <mxPoint x="550" y="250" as="sourcePoint" />
            <mxPoint x="480" y="190" as="targetPoint" />
          </mxGeometry>
        </mxCell>
        <mxCell id="yqV1bEYTJE_WVtq2V0sh-18" value="" style="endArrow=classic;html=1;rounded=0;fillColor=#ffe6cc;strokeColor=#000000;" edge="1" parent="1">
          <mxGeometry width="50" height="50" relative="1" as="geometry">
            <mxPoint x="660" y="280" as="sourcePoint" />
            <mxPoint x="480" y="170" as="targetPoint" />
          </mxGeometry>
        </mxCell>
        <mxCell id="yqV1bEYTJE_WVtq2V0sh-19" value="" style="endArrow=classic;html=1;rounded=0;fillColor=#ffe6cc;strokeColor=#000000;" edge="1" parent="1">
          <mxGeometry width="50" height="50" relative="1" as="geometry">
            <mxPoint x="330" y="250" as="sourcePoint" />
            <mxPoint x="400" y="180" as="targetPoint" />
          </mxGeometry>
        </mxCell>
        <mxCell id="yqV1bEYTJE_WVtq2V0sh-20" value="" style="endArrow=classic;html=1;rounded=0;fillColor=#ffe6cc;strokeColor=#000000;" edge="1" parent="1">
          <mxGeometry width="50" height="50" relative="1" as="geometry">
            <mxPoint x="220" y="260" as="sourcePoint" />
            <mxPoint x="370" y="170" as="targetPoint" />
          </mxGeometry>
        </mxCell>
        <mxCell id="yqV1bEYTJE_WVtq2V0sh-21" value="" style="endArrow=classic;html=1;rounded=0;" edge="1" parent="1">
          <mxGeometry width="50" height="50" relative="1" as="geometry">
            <mxPoint x="480" y="520" as="sourcePoint" />
            <mxPoint x="660" y="440" as="targetPoint" />
          </mxGeometry>
        </mxCell>
        <mxCell id="yqV1bEYTJE_WVtq2V0sh-22" value="" style="endArrow=classic;html=1;rounded=0;fillColor=#ffe6cc;strokeColor=#000000;" edge="1" parent="1">
          <mxGeometry width="50" height="50" relative="1" as="geometry">
            <mxPoint x="480" y="500" as="sourcePoint" />
            <mxPoint x="560" y="430" as="targetPoint" />
            <Array as="points" />
          </mxGeometry>
        </mxCell>
        <mxCell id="yqV1bEYTJE_WVtq2V0sh-23" value="" style="endArrow=classic;html=1;rounded=0;" edge="1" parent="1">
          <mxGeometry width="50" height="50" relative="1" as="geometry">
            <mxPoint x="460" y="490" as="sourcePoint" />
            <mxPoint x="480" y="440" as="targetPoint" />
          </mxGeometry>
        </mxCell>
        <mxCell id="yqV1bEYTJE_WVtq2V0sh-24" value="" style="endArrow=classic;html=1;rounded=0;fillColor=#ffe6cc;strokeColor=#000000;entryX=0.5;entryY=1;entryDx=0;entryDy=0;" edge="1" parent="1" target="yqV1bEYTJE_WVtq2V0sh-8">
          <mxGeometry width="50" height="50" relative="1" as="geometry">
            <mxPoint x="420" y="500" as="sourcePoint" />
            <mxPoint x="400" y="440" as="targetPoint" />
          </mxGeometry>
        </mxCell>
        <mxCell id="yqV1bEYTJE_WVtq2V0sh-25" value="" style="endArrow=classic;html=1;rounded=0;fillColor=#ffe6cc;strokeColor=#000000;" edge="1" parent="1">
          <mxGeometry width="50" height="50" relative="1" as="geometry">
            <mxPoint x="390" y="500" as="sourcePoint" />
            <mxPoint x="300" y="440" as="targetPoint" />
          </mxGeometry>
        </mxCell>
        <mxCell id="yqV1bEYTJE_WVtq2V0sh-26" value="" style="endArrow=classic;html=1;rounded=0;fillColor=#ffe6cc;strokeColor=#000000;" edge="1" parent="1">
          <mxGeometry width="50" height="50" relative="1" as="geometry">
            <mxPoint x="390" y="520" as="sourcePoint" />
            <mxPoint x="210" y="440" as="targetPoint" />
          </mxGeometry>
        </mxCell>
        <mxCell id="yqV1bEYTJE_WVtq2V0sh-27" value="" style="endArrow=classic;html=1;rounded=0;exitX=0.5;exitY=0;exitDx=0;exitDy=0;fillColor=#ffe6cc;strokeColor=#000000;entryX=0.5;entryY=1;entryDx=0;entryDy=0;" edge="1" parent="1" source="yqV1bEYTJE_WVtq2V0sh-4" target="yqV1bEYTJE_WVtq2V0sh-2">
          <mxGeometry width="50" height="50" relative="1" as="geometry">
            <mxPoint x="180" y="330" as="sourcePoint" />
            <mxPoint x="130" y="370" as="targetPoint" />
          </mxGeometry>
        </mxCell>
        <mxCell id="yqV1bEYTJE_WVtq2V0sh-28" value="" style="endArrow=classic;html=1;rounded=0;entryX=0.5;entryY=1;entryDx=0;entryDy=0;fillColor=#ffe6cc;strokeColor=#000000;exitX=0.5;exitY=0;exitDx=0;exitDy=0;" edge="1" parent="1" source="yqV1bEYTJE_WVtq2V0sh-3" target="yqV1bEYTJE_WVtq2V0sh-1">
          <mxGeometry width="50" height="50" relative="1" as="geometry">
            <mxPoint x="250" y="340" as="sourcePoint" />
            <mxPoint x="289.5" y="370" as="targetPoint" />
          </mxGeometry>
        </mxCell>
        <mxCell id="yqV1bEYTJE_WVtq2V0sh-29" value="" style="endArrow=classic;html=1;rounded=0;exitX=0.5;exitY=0;exitDx=0;exitDy=0;" edge="1" parent="1" source="yqV1bEYTJE_WVtq2V0sh-7">
          <mxGeometry width="50" height="50" relative="1" as="geometry">
            <mxPoint x="530" y="360" as="sourcePoint" />
            <mxPoint x="500" y="320" as="targetPoint" />
          </mxGeometry>
        </mxCell>
        <mxCell id="yqV1bEYTJE_WVtq2V0sh-30" value="" style="endArrow=classic;html=1;rounded=0;entryX=0.5;entryY=0;entryDx=0;entryDy=0;exitX=0.5;exitY=1;exitDx=0;exitDy=0;exitPerimeter=0;fillColor=#ffe6cc;strokeColor=#000000;" edge="1" parent="1">
          <mxGeometry width="50" height="50" relative="1" as="geometry">
            <mxPoint x="589.5" y="320" as="sourcePoint" />
            <mxPoint x="589.5" y="370" as="targetPoint" />
          </mxGeometry>
        </mxCell>
        <mxCell id="yqV1bEYTJE_WVtq2V0sh-31" value="" style="endArrow=classic;html=1;rounded=0;entryX=0.783;entryY=0.05;entryDx=0;entryDy=0;exitX=0;exitY=1;exitDx=0;exitDy=0;entryPerimeter=0;" edge="1" parent="1" source="yqV1bEYTJE_WVtq2V0sh-1" target="yqV1bEYTJE_WVtq2V0sh-4">
          <mxGeometry width="50" height="50" relative="1" as="geometry">
            <mxPoint x="230" y="320" as="sourcePoint" />
            <mxPoint x="230" y="370" as="targetPoint" />
          </mxGeometry>
        </mxCell>
        <mxCell id="yqV1bEYTJE_WVtq2V0sh-32" value="" style="endArrow=classic;html=1;rounded=0;exitX=0;exitY=0.667;exitDx=0;exitDy=0;exitPerimeter=0;" edge="1" parent="1" source="yqV1bEYTJE_WVtq2V0sh-6" target="yqV1bEYTJE_WVtq2V0sh-4">
          <mxGeometry width="50" height="50" relative="1" as="geometry">
            <mxPoint x="330" y="320" as="sourcePoint" />
            <mxPoint x="330" y="370" as="targetPoint" />
          </mxGeometry>
        </mxCell>
        <mxCell id="yqV1bEYTJE_WVtq2V0sh-33" value="" style="endArrow=classic;html=1;rounded=0;entryX=0.5;entryY=0;entryDx=0;entryDy=0;exitX=0.5;exitY=1;exitDx=0;exitDy=0;exitPerimeter=0;" edge="1" parent="1">
          <mxGeometry width="50" height="50" relative="1" as="geometry">
            <mxPoint x="390" y="320" as="sourcePoint" />
            <mxPoint x="390" y="370" as="targetPoint" />
          </mxGeometry>
        </mxCell>
        <mxCell id="yqV1bEYTJE_WVtq2V0sh-34" value="" style="endArrow=classic;html=1;rounded=0;entryX=1.067;entryY=0.667;entryDx=0;entryDy=0;entryPerimeter=0;exitX=0.017;exitY=0.25;exitDx=0;exitDy=0;exitPerimeter=0;" edge="1" parent="1" source="yqV1bEYTJE_WVtq2V0sh-11" target="yqV1bEYTJE_WVtq2V0sh-6">
          <mxGeometry width="50" height="50" relative="1" as="geometry">
            <mxPoint x="660" y="490" as="sourcePoint" />
            <mxPoint x="419" y="360" as="targetPoint" />
          </mxGeometry>
        </mxCell>
        <mxCell id="yqV1bEYTJE_WVtq2V0sh-35" value="" style="endArrow=classic;html=1;rounded=0;exitX=0;exitY=1;exitDx=0;exitDy=0;" edge="1" parent="1" source="yqV1bEYTJE_WVtq2V0sh-5" target="yqV1bEYTJE_WVtq2V0sh-8">
          <mxGeometry width="50" height="50" relative="1" as="geometry">
            <mxPoint x="509.5" y="330" as="sourcePoint" />
            <mxPoint x="509.5" y="380" as="targetPoint" />
          </mxGeometry>
        </mxCell>
        <mxCell id="yqV1bEYTJE_WVtq2V0sh-36" value="" style="endArrow=classic;html=1;rounded=0;exitX=1.033;exitY=0.35;exitDx=0;exitDy=0;exitPerimeter=0;fillColor=#ffe6cc;strokeColor=#000000;entryX=0;entryY=1;entryDx=0;entryDy=0;" edge="1" parent="1" source="yqV1bEYTJE_WVtq2V0sh-8" target="yqV1bEYTJE_WVtq2V0sh-10">
          <mxGeometry width="50" height="50" relative="1" as="geometry">
            <mxPoint x="519.5" y="340" as="sourcePoint" />
            <mxPoint x="450" y="420" as="targetPoint" />
          </mxGeometry>
        </mxCell>
        <mxCell id="yqV1bEYTJE_WVtq2V0sh-37" value="" style="endArrow=classic;html=1;rounded=0;entryX=0.25;entryY=0.967;entryDx=0;entryDy=0;fillColor=#ffe6cc;strokeColor=#000000;fontColor=#000000;entryPerimeter=0;exitX=1;exitY=0;exitDx=0;exitDy=0;" edge="1" parent="1" source="yqV1bEYTJE_WVtq2V0sh-12" target="yqV1bEYTJE_WVtq2V0sh-9">
          <mxGeometry width="50" height="50" relative="1" as="geometry">
            <mxPoint x="630" y="379" as="sourcePoint" />
            <mxPoint x="529.5" y="400" as="targetPoint" />
          </mxGeometry>
        </mxCell>
        <mxCell id="yqV1bEYTJE_WVtq2V0sh-38" value="1" style="text;html=1;strokeColor=none;fillColor=none;align=center;verticalAlign=middle;whiteSpace=wrap;rounded=0;" vertex="1" parent="1">
          <mxGeometry x="270" y="170" width="20" height="30" as="geometry" />
        </mxCell>
        <mxCell id="yqV1bEYTJE_WVtq2V0sh-39" value="1" style="text;html=1;strokeColor=none;fillColor=none;align=center;verticalAlign=middle;whiteSpace=wrap;rounded=0;" vertex="1" parent="1">
          <mxGeometry x="320" y="200" width="20" height="30" as="geometry" />
        </mxCell>
        <mxCell id="yqV1bEYTJE_WVtq2V0sh-40" value="1" style="text;html=1;strokeColor=none;fillColor=none;align=center;verticalAlign=middle;whiteSpace=wrap;rounded=0;" vertex="1" parent="1">
          <mxGeometry x="380" y="210" width="20" height="30" as="geometry" />
        </mxCell>
        <mxCell id="yqV1bEYTJE_WVtq2V0sh-41" value="1" style="text;html=1;strokeColor=none;fillColor=none;align=center;verticalAlign=middle;whiteSpace=wrap;rounded=0;" vertex="1" parent="1">
          <mxGeometry x="450" y="210" width="20" height="30" as="geometry" />
        </mxCell>
        <mxCell id="yqV1bEYTJE_WVtq2V0sh-42" value="1" style="text;html=1;strokeColor=none;fillColor=none;align=center;verticalAlign=middle;whiteSpace=wrap;rounded=0;" vertex="1" parent="1">
          <mxGeometry x="500" y="220" width="20" height="30" as="geometry" />
        </mxCell>
        <mxCell id="yqV1bEYTJE_WVtq2V0sh-43" value="1" style="text;html=1;strokeColor=none;fillColor=none;align=center;verticalAlign=middle;whiteSpace=wrap;rounded=0;fontColor=#000000;" vertex="1" parent="1">
          <mxGeometry x="570" y="170" width="20" height="30" as="geometry" />
        </mxCell>
        <mxCell id="yqV1bEYTJE_WVtq2V0sh-44" value="1" style="text;html=1;align=center;verticalAlign=middle;whiteSpace=wrap;rounded=0;fontColor=#000000;" vertex="1" parent="1">
          <mxGeometry x="640" y="310" width="20" height="30" as="geometry" />
        </mxCell>
        <mxCell id="yqV1bEYTJE_WVtq2V0sh-45" value="1" style="text;html=1;strokeColor=none;fillColor=none;align=center;verticalAlign=middle;whiteSpace=wrap;rounded=0;" vertex="1" parent="1">
          <mxGeometry x="590" y="320" width="20" height="30" as="geometry" />
        </mxCell>
        <mxCell id="yqV1bEYTJE_WVtq2V0sh-46" value="1" style="text;html=1;strokeColor=none;fillColor=none;align=center;verticalAlign=middle;whiteSpace=wrap;rounded=0;" vertex="1" parent="1">
          <mxGeometry x="530" y="300" width="20" height="30" as="geometry" />
        </mxCell>
        <mxCell id="yqV1bEYTJE_WVtq2V0sh-47" value="1" style="text;html=1;strokeColor=none;fillColor=none;align=center;verticalAlign=middle;whiteSpace=wrap;rounded=0;" vertex="1" parent="1">
          <mxGeometry x="480" y="330" width="20" height="30" as="geometry" />
        </mxCell>
        <mxCell id="yqV1bEYTJE_WVtq2V0sh-48" value="1" style="text;html=1;strokeColor=none;fillColor=none;align=center;verticalAlign=middle;whiteSpace=wrap;rounded=0;" vertex="1" parent="1">
          <mxGeometry x="560" y="320" width="20" height="30" as="geometry" />
        </mxCell>
        <mxCell id="yqV1bEYTJE_WVtq2V0sh-49" value="1" style="text;html=1;strokeColor=none;fillColor=none;align=center;verticalAlign=middle;whiteSpace=wrap;rounded=0;" vertex="1" parent="1">
          <mxGeometry x="390" y="330" width="20" height="30" as="geometry" />
        </mxCell>
        <mxCell id="yqV1bEYTJE_WVtq2V0sh-50" value="1" style="text;html=1;strokeColor=none;fillColor=none;align=center;verticalAlign=middle;whiteSpace=wrap;rounded=0;" vertex="1" parent="1">
          <mxGeometry x="290" y="330" width="20" height="30" as="geometry" />
        </mxCell>
        <mxCell id="yqV1bEYTJE_WVtq2V0sh-51" value="1" style="text;html=1;strokeColor=none;fillColor=none;align=center;verticalAlign=middle;whiteSpace=wrap;rounded=0;" vertex="1" parent="1">
          <mxGeometry x="320" y="320" width="20" height="30" as="geometry" />
        </mxCell>
        <mxCell id="yqV1bEYTJE_WVtq2V0sh-52" value="1" style="text;html=1;strokeColor=none;fillColor=none;align=center;verticalAlign=middle;whiteSpace=wrap;rounded=0;" vertex="1" parent="1">
          <mxGeometry x="210" y="310" width="20" height="30" as="geometry" />
        </mxCell>
        <mxCell id="yqV1bEYTJE_WVtq2V0sh-53" value="1" style="text;html=1;strokeColor=none;fillColor=none;align=center;verticalAlign=middle;whiteSpace=wrap;rounded=0;" vertex="1" parent="1">
          <mxGeometry x="150" y="330" width="20" height="30" as="geometry" />
        </mxCell>
        <mxCell id="yqV1bEYTJE_WVtq2V0sh-54" value="1" style="text;html=1;strokeColor=none;fillColor=none;align=center;verticalAlign=middle;whiteSpace=wrap;rounded=0;" vertex="1" parent="1">
          <mxGeometry x="600" y="480" width="20" height="30" as="geometry" />
        </mxCell>
        <mxCell id="yqV1bEYTJE_WVtq2V0sh-55" value="1" style="text;html=1;strokeColor=none;fillColor=none;align=center;verticalAlign=middle;whiteSpace=wrap;rounded=0;fontColor=#000000;" vertex="1" parent="1">
          <mxGeometry x="530" y="460" width="20" height="30" as="geometry" />
        </mxCell>
        <mxCell id="yqV1bEYTJE_WVtq2V0sh-56" value="1" style="text;html=1;strokeColor=none;fillColor=none;align=center;verticalAlign=middle;whiteSpace=wrap;rounded=0;" vertex="1" parent="1">
          <mxGeometry x="480" y="450" width="20" height="30" as="geometry" />
        </mxCell>
        <mxCell id="yqV1bEYTJE_WVtq2V0sh-57" value="1" style="text;html=1;strokeColor=none;fillColor=none;align=center;verticalAlign=middle;whiteSpace=wrap;rounded=0;" vertex="1" parent="1">
          <mxGeometry x="410" y="440" width="20" height="30" as="geometry" />
        </mxCell>
        <mxCell id="yqV1bEYTJE_WVtq2V0sh-58" value="1" style="text;html=1;strokeColor=none;fillColor=none;align=center;verticalAlign=middle;whiteSpace=wrap;rounded=0;" vertex="1" parent="1">
          <mxGeometry x="340" y="440" width="20" height="30" as="geometry" />
        </mxCell>
        <mxCell id="yqV1bEYTJE_WVtq2V0sh-59" value="1" style="text;html=1;strokeColor=none;fillColor=none;align=center;verticalAlign=middle;whiteSpace=wrap;rounded=0;" vertex="1" parent="1">
          <mxGeometry x="300" y="460" width="20" height="30" as="geometry" />
        </mxCell>
      </root>
    </mxGraphModel>
  </diagram>
</mxfile>
